<svg xmlns="http://www.w3.org/2000/svg" viewBox="0 0 80.6 82.2" enable-background="new 0 0 80.6 82.2"><path d="M16.8 82.2s5.9-17.7 17-17c0 0 37.6 1.1 38.4-25.8 0 0 2.9-31.5-27.9-38.9 0 0 21.9 27.7-1 25.6 0 0 25 21.8-8.8 32.2 0 0-.8.1-2.1.3-6.8.8-13.7.5-20.4-.5-3.6-.6-8.3-.9-12 .4 0 0 17.9 3 16.8 23.7zm18.7-82.2c1.5-.2 9 .5 10.4 9 .8 4.6-.7 9.4-4.2 12.6-2 1.7-4.6 3-7.6 1.9 0 0-7.7-3.1-9.3-4.2 0 0 8.1-1.2 7.5-3 0 0-1.8-7-10.1-9.4-.1 0-.3-4.7 13.3-6.9zm10.3 4.4s7.1 16.6-4.1 20.1c0 0 20.3 5.6 4.1-20.1z"/><circle fill="#fff" cx="37.2" cy="4.4" r="1.9"/><path d="M41.4 29.2c-.7 1.9-2.8 6.7-1.2 6.4l4.8-2.2c.8-.4 1.2-1.4.7-2.2-.5-.9-1.3-2.1-2.3-2.7-.8-.4-1.7 0-2 .7zm1.1 23.3c-1 1.2-2.8 2.7-5 2.9-.7.1-1.4-.5-1.4-1.2v-2.5c0-.7.7-1.3 1.4-1.2l4.4.6c.7 0 1.1.8.6 1.4z"/><path stroke="#fff" stroke-width="1.135" stroke-miterlimit="10" d="M66.1 9.9l3.4 5.8 6.2.2-4-5.8zm3.8 5.8l3.4 8.1 6 .1-3.1-8zm3.2 7.7l1.9 9.6 4.8.8-.5-9.9zm2 9.2l-1 8.3 3 .3s1.5-4.7 2.8-7.8l-4.8-.8z"/><path d="M74.4 41.1l2.1.2-3.2 5.3z"/><path fill="#fff" stroke="#000" stroke-miterlimit="10" d="M67.4 10.5"/></svg>