<svg xmlns="http://www.w3.org/2000/svg" viewBox="0 83.7 606.7 624.4" enable-background="new 0 83.7 606.7 624.4"><path d="M127.6 708.1s44.8-134.4 129.1-129.1c0 0 285.5 8.4 291.6-195.9 0 0 22-239.2-211.8-295.4 0 0 166.3 210.3-7.6 194.4 0 0 189.8 165.5-66.8 244.5 0 0-6.1.8-15.9 2.3-51.6 6.1-104 3.8-154.9-3.8-27.3-4.6-63-6.8-91.1 3-.2 0 135.7 22.8 127.4 180zm142-624.2c11.4-1.5 68.3 3.8 79 68.3 6.1 34.9-5.3 71.4-31.9 95.7-15.2 12.9-34.9 22.8-57.7 14.4 0 0-58.5-23.5-70.6-31.9 0 0 61.5-9.1 56.9-22.8 0 0-13.7-53.2-76.7-71.4-.8.1-2.3-35.6 101-52.3zm78.2 33.4s53.9 126-31.1 152.6c-.1.1 154.1 42.6 31.1-152.6z"/><circle fill="#fff" cx="282.5" cy="117.3" r="14.4"/><path d="M314.4 305.6c-5.3 14.4-21.3 50.9-9.1 48.6l36.4-16.7c6.1-3 9.1-10.6 5.3-16.7-3.8-6.8-9.9-15.9-17.5-20.5-6-3-12.9 0-15.1 5.3zm8.3 177c-7.6 9.1-21.3 20.5-38 22-5.3.8-10.6-3.8-10.6-9.1v-19c0-5.3 5.3-9.9 10.6-9.1l33.4 4.6c5.4-.1 8.4 6 4.6 10.6z"/><path stroke="#fff" stroke-width="1.135" stroke-miterlimit="10" d="M501.9 159.1l25.8 44 47.1 1.5-30.4-44-42.5-1.5zm28.9 44l25.8 61.5 45.6.8-23.5-60.7-47.9-1.6zm24.3 58.5l14.4 72.9 36.4 6.1-3.8-75.2-47-3.8zm15.1 69.9l-7.6 63 22.8 2.3s11.4-35.7 21.3-59.2l-36.5-6.1z"/><path d="M564.9 396l15.9 1.5-24.3 40.2 8.4-41.7z"/><path fill="#fff" stroke="#000" stroke-miterlimit="10" d="M511.8 163.7"/></svg>