<?xml version="1.0" encoding="utf-8"?>
<!-- Generator: Adobe Illustrator 18.1.1, SVG Export Plug-In . SVG Version: 6.00 Build 0)  -->
<svg version="1.1" xmlns="http://www.w3.org/2000/svg" xmlns:xlink="http://www.w3.org/1999/xlink" x="0px" y="0px"
	 viewBox="0 0 80.6 82.2" enable-background="new 0 0 80.6 82.2" xml:space="preserve">
<g id="Layer_1">
</g>
<g id="Layer_2">
	<g>
		<path d="M16.8,82.2c0,0,5.9-17.7,17-17c0,0,37.6,1.1,38.4-25.8c0,0,2.9-31.5-27.9-38.9c0,0,21.9,27.7-1,25.6c0,0,25,21.8-8.8,32.2
			c0,0-0.8,0.1-2.1,0.3c-6.8,0.8-13.7,0.5-20.4-0.5C8.4,57.5,3.7,57.2,0,58.5C0,58.5,17.9,61.5,16.8,82.2z"/>
		<path d="M35.5,0c1.5-0.2,9,0.5,10.4,9c0.8,4.6-0.7,9.4-4.2,12.6c-2,1.7-4.6,3-7.6,1.9c0,0-7.7-3.1-9.3-4.2c0,0,8.1-1.2,7.5-3
			c0,0-1.8-7-10.1-9.4C22.1,6.9,21.9,2.2,35.5,0z"/>
		<path d="M45.8,4.4c0,0,7.1,16.6-4.1,20.1C41.7,24.5,62,30.1,45.8,4.4z"/>
		<circle fill="#FFFFFF" cx="37.2" cy="4.4" r="1.9"/>
		<path d="M41.4,29.2c-0.7,1.9-2.8,6.7-1.2,6.4l4.8-2.2c0.8-0.4,1.2-1.4,0.7-2.2c-0.5-0.9-1.3-2.1-2.3-2.7
			C42.6,28.1,41.7,28.5,41.4,29.2z"/>
		<path d="M42.5,52.5c-1,1.2-2.8,2.7-5,2.9c-0.7,0.1-1.4-0.5-1.4-1.2l0-2.5c0-0.7,0.7-1.3,1.4-1.2l4.4,0.6
			C42.6,51.1,43,51.9,42.5,52.5z"/>
		<g>
			<polygon stroke="#FFFFFF" stroke-width="1.1347" stroke-miterlimit="10" points="66.1,9.9 69.5,15.7 75.7,15.9 71.7,10.1 			"/>
			<polygon stroke="#FFFFFF" stroke-width="1.1347" stroke-miterlimit="10" points="69.9,15.7 73.3,23.8 79.3,23.9 76.2,15.9 			"/>
			<polygon stroke="#FFFFFF" stroke-width="1.1347" stroke-miterlimit="10" points="73.1,23.4 75,33 79.8,33.8 79.3,23.9 			"/>
			<path stroke="#FFFFFF" stroke-width="1.1347" stroke-miterlimit="10" d="M75.1,32.6l-1,8.3l3,0.3c0,0,1.5-4.7,2.8-7.8L75.1,32.6z
				"/>
			<polygon points="74.4,41.1 76.5,41.3 73.3,46.6 			"/>
			<path fill="#FFFFFF" stroke="#000000" stroke-miterlimit="10" d="M67.4,10.5"/>
		</g>
	</g>
</g>
</svg>
