<svg xmlns="http://www.w3.org/2000/svg" viewBox="0 0 56.6 63.1" enable-background="new 0 0 56.6 63.1"><path d="M38.1 37.6c-1.2-.7-2.8-1.3-4.6-1.9l-5.2 13.1-6.3-15.9c-3.3-1.1-6.3-2.6-8.8-4.4-.4-.3-.9-.7-1.2-1l11.3 28.3c1.4.4 2.9.5 4.6.5 2 0 3.8-.2 5.4-.6l6.7-16.8c-.5-.5-1.2-.9-1.9-1.3zm0 0c-1.2-.7-2.8-1.3-4.6-1.9l-5.2 13.1-6.3-15.9c-3.3-1.1-6.3-2.6-8.8-4.4-.4-.3-.9-.7-1.2-1l11.3 28.3c1.4.4 2.9.5 4.6.5 2 0 3.8-.2 5.4-.6l6.7-16.8c-.5-.5-1.2-.9-1.9-1.3zm0 0c-1.2-.7-2.8-1.3-4.6-1.9l-5.2 13.1-6.3-15.9c-3.3-1.1-6.3-2.6-8.8-4.4-.4-.3-.9-.7-1.2-1l11.3 28.3c1.4.4 2.9.5 4.6.5 2 0 3.8-.2 5.4-.6l6.7-16.8c-.5-.5-1.2-.9-1.9-1.3zm-28.7-36.4h-9.4v60.4h7.5v-9.6c-1.5-3.1-2.3-6.7-2.3-10.8h2.3v-20c-.5-1.5-.8-3.2-.8-4.9 0-4.3 1.5-7.9 4.5-10.7l-1.8-4.4zm28.7 36.4c-1.2-.7-2.8-1.3-4.6-1.9l-5.2 13.1-6.3-15.9c-3.3-1.1-6.3-2.6-8.8-4.4-.4-.3-.9-.7-1.2-1l11.3 28.3c1.4.4 2.9.5 4.6.5 2 0 3.8-.2 5.4-.6l6.7-16.8c-.5-.5-1.2-.9-1.9-1.3zm0 0c-1.2-.7-2.8-1.3-4.6-1.9l-5.2 13.1-6.3-15.9c-3.3-1.1-6.3-2.6-8.8-4.4-.4-.3-.9-.7-1.2-1l11.3 28.3c1.4.4 2.9.5 4.6.5 2 0 3.8-.2 5.4-.6l6.7-16.8c-.5-.5-1.2-.9-1.9-1.3zm-23.6-23.5c-.2.7-.3 1.4-.3 2.2 0 3 1.4 5.5 4.2 7.6l-3.9-9.8zm23.6 23.5c-1.2-.7-2.8-1.3-4.6-1.9l-5.2 13.1-6.3-15.9c-3.3-1.1-6.3-2.6-8.8-4.4-.4-.3-.9-.7-1.2-1l11.3 28.3c1.4.4 2.9.5 4.6.5 2 0 3.8-.2 5.4-.6l6.7-16.8c-.5-.5-1.2-.9-1.9-1.3zm9.1-36.4l-2.3 5.8c2.3 2.7 3.6 5.9 4 9.8l.2-.4v22.2c1 1.8 1.4 3.7 1.4 5.8 0 2.8-.5 5.2-1.4 7.4v9.9h7.6v-60.5h-9.5zm.7 18.1l-5.3 13.1c-1.9-1.1-4.1-2-6.7-2.9l5-12.6c.2.7.4 1.5.5 2.3h6.5z"/><path fill="#F26522" d="M48.9 16.8l-1 2.5h1.1c0-.9 0-1.7-.1-2.5z"/><path fill="#ED1C24" d="M12 27.5c-2.1-1.9-3.6-4-4.5-6.3v-4.9l4.5 11.2zm38.5 16.8c0 2.8-.5 5.2-1.4 7.4v-13.2c.9 1.7 1.4 3.7 1.4 5.8zm-1.4-5.8v13.3c-1 2.4-2.6 4.4-4.7 6.2-4.2 3.5-9.7 5.2-16.5 5.2-6.8 0-12.3-2-16.5-6-1.6-1.5-2.9-3.2-3.8-5.2v-10.8h5.2c0 4.6 1.4 8.2 4.2 10.9 1.8 1.8 3.9 3 6.4 3.6l2.3 5.8h5.3l2.3-5.8c2.1-.5 4-1.3 5.6-2.5 2.8-2 4.2-4.8 4.2-8.2 0-2.4-1-4.5-3-6.1l2.6-6.5.6.4c2.7 1.6 4.6 3.5 5.8 5.7zm-15.9 17.3l-2.3 5.8h-5.3l-2.3-5.8c1.4.4 2.9.5 4.6.5 1.9.1 3.7-.1 5.3-.5zm2.8-26.3l-2.4 6.2c-1.6-.5-3.5-.9-5.6-1.3-2.1-.4-4-.9-5.9-1.5l-3.6-9s.1 0 .1.1c2.4 1.8 5.5 3 9.4 3.7 2.9.5 5.6 1.1 8 1.8zm8.9-22.5l-4 10c-.8-2.7-2.2-5-4.1-6.8-2.5-2.2-5.5-3.4-8.9-3.4-4.1 0-7.4.9-9.9 2.6-1.8 1.3-2.9 2.8-3.4 4.7l-3.4-8.5c.4-.4.8-.8 1.3-1.1 3.8-3 9-4.5 15.4-4.5s11.6 1.8 15.4 5.3c.6.5 1.1 1.1 1.6 1.7z"/><path d="M22 32.9c-3.3-1.1-6.3-2.6-8.8-4.4-.4-.3-.9-.7-1.2-1l-4.5-11.2v4.9c-.5-1.5-.8-3.2-.8-4.9 0-4.3 1.5-7.9 4.5-10.7l3.4 8.5c-.2.7-.3 1.4-.3 2.2 0 3 1.4 5.5 4.2 7.6l3.5 9zm-14.5 8.3v10.8c-1.5-3.1-2.3-6.7-2.3-10.8h2.3zm35.1-8.8l-2.6 6.5c-.6-.5-1.2-.9-1.9-1.3-1.2-.7-2.8-1.3-4.6-1.9l2.4-6.2c2.6.9 4.8 1.8 6.7 2.9z"/><path fill="#ED1C24" d="M48.9 16.8l-1 2.5h-6.4c-.1-.8-.3-1.6-.5-2.3l4-10c2.2 2.7 3.5 5.9 3.9 9.8z"/></svg>