<svg xmlns="http://www.w3.org/2000/svg" viewBox="0 0 493.7 629.5" enable-background="new 0 0 493.7 629.5"><path fill="#010101" d="M291.5 196.7s11.1 53.6-11.8 73.3l-20-100.4s9.3-1.9 15.1-8.4c0 0 14.3 12.3 16.7 35.5z"/><path fill="#A77B2C" d="M225.3 191.8l22.8 32.2s16.1 1.5 22 10.7l-25.8 35.8 28.3 144.5s28.9-22.7 22.7-70.4l-34.9-174.7s-10 1-13.3-.9l-17 17.7-4.8 5.1z"/><path fill="#FDB813" d="M226.3 51.6s2.9 13.9-30.3 33.7l36.3 95.8s30.9-44.5 41.9-44.5c-.1.1-26.9-69.7-47.9-85z"/><path fill="#A77B2C" stroke="#A77B2C" stroke-miterlimit="10" d="M226.3 51.6s2.9 27.2-28 36.4c0 0-90.4-119.6-163-47.7 0 0 44.7-56.9 124.9-35.3-.1.2 38 11.5 66.1 46.6z"/><path fill="#F9F8F7" d="M89.8 270.1c0 2.7-2.2 5-5 5-2.7 0-5-2.2-5-5 0-2.7 2.2-5 5-5 2.7 0 5 2.2 5 5zm0 12.4c0 2.7-2.2 5-5 5-2.7 0-5-2.2-5-5 0-2.7 2.2-5 5-5 2.7 0 5 2.2 5 5zm0 12.3c0 2.7-2.2 5-5 5-2.7 0-5-2.2-5-5 0-2.7 2.2-5 5-5 2.7.1 5 2.3 5 5zm0 12.4c0 2.7-2.2 5-5 5-2.7 0-5-2.2-5-5 0-2.7 2.2-5 5-5 2.7.1 5 2.3 5 5zm-37.2-86.6c0 2.7-2.2 5-5 5-2.7 0-5-2.2-5-5 0-2.7 2.2-5 5-5s5 2.2 5 5zm0 12.3c0 2.7-2.2 5-5 5-2.7 0-5-2.2-5-5 0-2.7 2.2-5 5-5 2.8.1 5 2.3 5 5zm0 12.4c0 2.7-2.2 5-5 5-2.7 0-5-2.2-5-5 0-2.7 2.2-5 5-5s5 2.3 5 5zm12.4-24.7c0 2.7-2.2 5-5 5-2.7 0-5-2.2-5-5 0-2.7 2.2-5 5-5s5 2.2 5 5zm0 12.3c0 2.7-2.2 5-5 5-2.7 0-5-2.2-5-5 0-2.7 2.2-5 5-5 2.8.1 5 2.3 5 5zm0 12.4c0 2.7-2.2 5-5 5-2.7 0-5-2.2-5-5 0-2.7 2.2-5 5-5s5 2.3 5 5zm0 12.4c0 2.7-2.2 5-5 5-2.7 0-5-2.2-5-5 0-2.7 2.2-5 5-5s5 2.3 5 5zm12.4-37.1c0 2.7-2.2 5-5 5-2.7 0-5-2.2-5-5 0-2.7 2.2-5 5-5 2.7 0 5 2.2 5 5zm0 12.3c0 2.7-2.2 5-5 5-2.7 0-5-2.2-5-5 0-2.7 2.2-5 5-5 2.7.1 5 2.3 5 5zm0 12.4c0 2.7-2.2 5-5 5-2.7 0-5-2.2-5-5 0-2.7 2.2-5 5-5 2.7 0 5 2.3 5 5zm0 12.4c0 2.7-2.2 5-5 5-2.7 0-5-2.2-5-5 0-2.7 2.2-5 5-5 2.7 0 5 2.3 5 5zm12.4-37.1c0 2.7-2.2 5-5 5-2.7 0-5-2.2-5-5 0-2.7 2.2-5 5-5 2.7 0 5 2.2 5 5zm0 12.3c0 2.7-2.2 5-5 5-2.7 0-5-2.2-5-5 0-2.7 2.2-5 5-5 2.7.1 5 2.3 5 5zm0 12.4c0 2.7-2.2 5-5 5-2.7 0-5-2.2-5-5 0-2.7 2.2-5 5-5 2.7 0 5 2.3 5 5zm0 12.4c0 2.7-2.2 5-5 5-2.7 0-5-2.2-5-5 0-2.7 2.2-5 5-5 2.7 0 5 2.3 5 5zm-37.2-86.7c0 2.7-2.2 5-5 5-2.7 0-5-2.2-5-5 0-2.7 2.2-5 5-5s5 2.3 5 5zm0 12.4c0 2.7-2.2 5-5 5-2.7 0-5-2.2-5-5 0-2.7 2.2-5 5-5s5 2.3 5 5zm0 12.4c0 2.7-2.2 5-5 5-2.7 0-5-2.2-5-5 0-2.7 2.2-5 5-5s5 2.2 5 5zm0 12.4c0 2.7-2.2 5-5 5-2.7 0-5-2.2-5-5 0-2.7 2.2-5 5-5s5 2.2 5 5zm12.4-37.2c0 2.7-2.2 5-5 5-2.7 0-5-2.2-5-5 0-2.7 2.2-5 5-5s5 2.3 5 5zm0 12.4c0 2.7-2.2 5-5 5-2.7 0-5-2.2-5-5 0-2.7 2.2-5 5-5s5 2.3 5 5zm0 12.4c0 2.7-2.2 5-5 5-2.7 0-5-2.2-5-5 0-2.7 2.2-5 5-5s5 2.2 5 5zm0 12.4c0 2.7-2.2 5-5 5-2.7 0-5-2.2-5-5 0-2.7 2.2-5 5-5s5 2.2 5 5zm12.4-37.2c0 2.7-2.2 5-5 5-2.7 0-5-2.2-5-5 0-2.7 2.2-5 5-5 2.7 0 5 2.3 5 5zm0 12.4c0 2.7-2.2 5-5 5-2.7 0-5-2.2-5-5 0-2.7 2.2-5 5-5 2.7 0 5 2.3 5 5zm0 12.4c0 2.7-2.2 5-5 5-2.7 0-5-2.2-5-5 0-2.7 2.2-5 5-5 2.7 0 5 2.2 5 5zm0 12.4c0 2.7-2.2 5-5 5-2.7 0-5-2.2-5-5 0-2.7 2.2-5 5-5 2.7 0 5 2.2 5 5zm12.4-37.2c0 2.7-2.2 5-5 5-2.7 0-5-2.2-5-5 0-2.7 2.2-5 5-5 2.7 0 5 2.3 5 5zm0 12.4c0 2.7-2.2 5-5 5-2.7 0-5-2.2-5-5 0-2.7 2.2-5 5-5 2.7 0 5 2.3 5 5zm0 12.4c0 2.7-2.2 5-5 5-2.7 0-5-2.2-5-5 0-2.7 2.2-5 5-5 2.7 0 5 2.2 5 5zm0 12.4c0 2.7-2.2 5-5 5-2.7 0-5-2.2-5-5 0-2.7 2.2-5 5-5 2.7 0 5 2.2 5 5zm-49.6-37.2c0 2.7-2.2 5-5 5-2.7 0-5-2.2-5-5 0-2.7 2.2-5 5-5s5 2.3 5 5zm0 12.4c0 2.7-2.2 5-5 5-2.7 0-5-2.2-5-5 0-2.7 2.2-5 5-5s5 2.3 5 5zm0 12.4c0 2.7-2.2 5-5 5-2.7 0-5-2.2-5-5 0-2.7 2.2-5 5-5s5 2.2 5 5z"/><path stroke="#1B1919" stroke-width="3" stroke-miterlimit="10" d="M186.2 112.4" fill="none"/><path fill="#7C2E17" d="M440.8 400.6s41.7-3.4 52.2-46.7c0 0 5.4-7.7-13.4-20.3 0 0-31.3-21.2-39.5-27.7 0 0-56.4-31.9-68.3-21.9 0 0-3.6 1.5-3.9 9.9 0 0-9.2-1-25.8 13.8 0 0-30.5 21.6-11.4 64.2 0 0 .8 5.8.5 9.1 0 0 11.1 13.1 15.6 21.8 0 0-1.4 5.9-14.5 12.6 0 0-24.8 9.8-38.2 50.9 0 0 34.8 39.1 91.6 44 0 0 .4 1.8.3-7.7 0 0-.1-9.5 6.4-19.1 0 0 14-28.3 8-40.7 0 0 5.8-1.5 9.1-4.1 3.3-2.6 2.8-10.3 13.8-11.9 0 0 4.3-5.2 4.7-9.2-.2 0 10.7-8.9 12.8-17z"/><path fill="#010101" d="M189 389.7c54.7 50 35 101.7 1.1 164.5"/><path stroke="#1B1919" stroke-width="3" stroke-miterlimit="10" d="M319.5 534.1m41.7-150.9l-84.1 186.1 11.9 56.5-35.1-50.6" fill="none"/><path fill="#FDB813" d="M244.4 270.9l-40.1-7s-7.1-8.5-7-12.2l-14 76.8 28.5 88.2s33.5 17.3 60.9-1.8l-28.3-144z"/><path fill="#fff" stroke="#fff" stroke-miterlimit="10" d="M207.8 335.2l37.9-17.6h28.9s-1.5 98.6-66.8 17.6z"/><path fill="#100809" d="M207.7 335.5l37.7 2.3-4.3-17.9 4.6-2.1 4.3 18.4 24.6-17.6s-.9 13.5-1.9 15.9c0 0-32.2 24.8-64.5 2.2l-.5-1.2z"/><path fill="#7E2F19" stroke="#7E2F19" stroke-miterlimit="10" d="M206.1 330.5l1.4 4.2 38.2-17.5h35.6s-5.7-32-29.3-8.6l-15.7-8.2-30.2 30.1z"/><path fill="#A94624" d="M205.7 330.3s6 45.7 34.4 49.3c0 0 31.9 3.7 40.8-22.3l.8-39.7h-7.1s-.3 38.9-23 42.4c-22.7 3.4-44.2-21.2-45.9-29.7z"/><path fill="#fff" d="M247.1 168.9l-20.3 20.7 36.2-8.5-2.3-11z"/><path fill="#1B1919" d="M232.8 184.7s13.4 1.8 15.6-5.7c-.2.5 1.7-4.7-2-7.9l-13.6 13.6zm30.4-.8l-38.2 9 3.6-3.6 34.1-8.2z"/><path fill="#674D1E" d="M77.7 263.5s-4.5 3.5-7.1 5.2c0 0 54.4 98.8 73.5 108.2 19 9.4 48.5 17.6 48.5 17.6l-114.9-131z"/><path fill="#A77B2C" d="M199.9 88.1s-46.2 16.4-125-5.8c0 0-3.4 55.5 8.6 103l-14.7 46.4 10.8 34.1s114.3 132.8 131.7 150.4l-26.6-86.9 12.5-76.8s.5 10.9 9.9 12.5c9.4 1.6 27.6 4.1 27.6 4.1l-18.3-69.4 16.1-18.1-32.6-93.5z"/><path fill="#FDB813" stroke="#FDB813" stroke-miterlimit="10" d="M125.6 190.8s-10.3 13.3 4.6 21.7l37.3-15.9 18.3 2.8-35.8 21.2s17.4 18.9 31.7 9.2c14.3-9.8 22.3-34.5 22.3-34.5l-78.4-4.5z"/><path fill="#1B1919" d="M125.6 189.6l79.7 5.3-9.9-11.7-24.6-5.9-9.2 8.2-8.7-10.6z"/><path fill="#fff" d="M130.3 213.1l43.3-19.8 21.1 1.1-45.3 26z"/><path fill="#1B1919" d="M138.9 209.1s6 5.1 13.7 2.8 10.6-5.1 8.1-12.7l-21.8 9.9z"/><path fill="#FDB813" stroke="#FDB813" stroke-miterlimit="10" d="M225.3 192.6s-5.8 3.1-8.6 6.8l18.3 69.4 9.3 1.6 19.5-27s-34.6-46.6-38.5-50.8z"/><path fill="#1B1919" d="M216.2 199.4l9.2-7.6-20.1 3.1z"/><path fill="#674D1E" d="M199.9 88.1s-66 25.8-122.4-5.6c0 0-2.8 51.8 9.2 101.4l-18.2 48.6-9.6-30.7-30.4-15.6s-50.5-102.7 19.1-157.4l152.3 59.3z"/><path fill="#FDB813" stroke="#FDB813" stroke-miterlimit="10" d="M10.9 177.1l47.2 23.3 20.9 65.2s-12.7 18.5-31.9-7.5l-36.2-81z"/><path fill="#A77B2C" d="M33.1 202.8s-14.6 16.3.3 35.9c0 0 6.5 11 28.2 12.5l-28.5-48.4z"/><path stroke="#A77B2C" stroke-width="3" stroke-miterlimit="10" d="M15.8 189s13.5-4.8 19.6 11.1c3.5 9.1 8.5 9.5 14.5 6.1" fill="none"/><path fill="#fff" d="M249.6 223.5l14.8 19.9 7.9-11.9s-8.5-12.4-22.7-8z"/><path fill="#FDB813" d="M99.8 318.8l.1 60.7s-44.8 5.2-39.2 56.3c0 0 23.1 177.5 24.1 193.7h106.8l-1.9-236.6s-48.5-14.4-53.2-24.8l-36.7-49.3z"/><path fill="#A77B2C" d="M185.5 528.3s32.2-13.9 54 24.6l69.1-74.2s.7 4.4 35.4 20.3c0 0-66 131-107.6 135 0 0-84.5-27.2-158.5-63.6-20.6-10.1-105.2-70.1-39.4-139.7 0 0 68.8-55.9 132.1 38.6 0 0 17.2 21.3 14.9 60"/><path stroke="#1B1919" stroke-width="3" stroke-miterlimit="10" d="M58.4 518.9c7.1-36.6 41.6-58.9 77-49.7 28.3 7.3 46.6 37 40.9 66.2-4.6 23.4-26.6 37.7-49.3 31.8-18.1-4.7-29.8-23.7-26.2-42.4 2.9-15 17-24.1 31.5-20.4 11.6 3 19.1 15.1 16.7 27.1-1.9 9.6-10.9 15.4-20.2 13-7.4-1.9-12.2-9.7-10.7-17.4 1.2-6.1 7-9.9 12.9-8.3 4.7 1.2 7.8 6.2 6.9 11.1m138 7.4c-3.7-15.2 5.5-29.3 20.4-31.4 12-1.7 24 6.8 27 19 2.4 9.7-3.5 18.7-13.1 20.1-7.7 1.1-15.4-4.3-17.3-12.1-1.5-6.2 2.2-12 8.4-12.9 4.9-.7 9.8 2.8 11.1 7.8 1 4-1.4 7.7-5.3 8.2-3.1.4-6.3-1.8-7.1-5-.6-2.6.9-4.9 3.4-5.3 2-.3 4 1.1 4.5 3.2" fill="none"/><path stroke="#674D1E" stroke-width="3" stroke-miterlimit="10" d="M250.1 87s-9.6-14.1-20.6 12.8l-3.5 7.2c-3.6 9.4-13.2 29-29.1 26.7m57.6-37.2c-.7-3.9-9.4-9.6-21.6 20-2.9 7.1-7.1 13.7-12.5 19.3-6.6 6.8-15.9 13.1-26.9 11.5m71.1-32.7s-7.6-24-28.9 18.2l-2.1 4.5c-2.7 5.8-17.4 32.8-51.4 24.5" fill="none"/><path fill="#FDB813" d="M251 170c5.5.5 23.6 1.4 27-10.1 0 0-1.6-16.2-13.7-6.1-10 8.4-16.2 15.5-16.2 15.5.9.3 1.9.6 2.9.7z"/><path fill="#1B1919" d="M278.9 142.3c4.8 13.1-1 17.6-1 17.6s-1.4-15.2-13.2-5.4c-10.9 9-39.7 38.4-39.7 38.4l-2.5.4s46.3-78.5 56.4-51z"/></svg>