<?xml version="1.0" encoding="utf-8"?>
<!-- Generator: Adobe Illustrator 18.1.1, SVG Export Plug-In . SVG Version: 6.00 Build 0)  -->
<svg version="1.1" id="Layer_1" xmlns="http://www.w3.org/2000/svg" xmlns:xlink="http://www.w3.org/1999/xlink" x="0px" y="0px"
	 viewBox="0 0 493.7 629.5" enable-background="new 0 0 493.7 629.5" xml:space="preserve">
<rect x="240.3" y="302.8" fill="none" width="28.8" height="5.8"/>
<text transform="matrix(1 0 0 1 240.251 307.0951)"><tspan x="0" y="0" fill="#FFFFFF" stroke="#FFFFFF" stroke-linejoin="round" stroke-miterlimit="10" font-family="'URWEgyptienneT-ReguExtrWide'" font-size="6.4612">T</tspan><tspan x="5.2" y="0" fill="#FFFFFF" stroke="#FFFFFF" stroke-linejoin="round" stroke-miterlimit="10" font-family="'URWEgyptienneT-ReguExtrWide'" font-size="6.4612">Y</tspan><tspan x="10.4" y="0" fill="#FFFFFF" stroke="#FFFFFF" stroke-linejoin="round" stroke-miterlimit="10" font-family="'URWEgyptienneT-ReguExtrWide'" font-size="6.4612">SON</tspan></text>
<path fill="#F9F8F7" d="M65,270.1c0,2.7-2.2,5-5,5l0,0c-2.7,0-5-2.2-5-5l0,0c0-2.7,2.2-5,5-5l0,0C62.8,265.1,65,267.3,65,270.1
	L65,270.1z"/>
<path fill="#F9F8F7" d="M65,282.5c0,2.7-2.2,5-5,5l0,0c-2.7,0-5-2.2-5-5l0,0c0-2.7,2.2-5,5-5l0,0C62.8,277.5,65,279.7,65,282.5
	L65,282.5z"/>
<path fill="#F9F8F7" d="M65,294.8c0,2.7-2.2,5-5,5l0,0c-2.7,0-5-2.2-5-5l0,0c0-2.7,2.2-5,5-5l0,0C62.8,289.9,65,292.1,65,294.8
	L65,294.8z"/>
<path fill="#F9F8F7" d="M65,307.2c0,2.7-2.2,5-5,5l0,0c-2.7,0-5-2.2-5-5l0,0c0-2.7,2.2-5,5-5l0,0C62.8,302.3,65,304.5,65,307.2
	L65,307.2z"/>
<path fill="#F9F8F7" d="M77.4,270.1c0,2.7-2.2,5-5,5l0,0c-2.7,0-5-2.2-5-5l0,0c0-2.7,2.2-5,5-5l0,0
	C75.1,265.1,77.4,267.3,77.4,270.1L77.4,270.1z"/>
<path fill="#F9F8F7" d="M77.4,282.5c0,2.7-2.2,5-5,5l0,0c-2.7,0-5-2.2-5-5l0,0c0-2.7,2.2-5,5-5l0,0
	C75.1,277.5,77.4,279.7,77.4,282.5L77.4,282.5z"/>
<path fill="#F9F8F7" d="M77.4,294.8c0,2.7-2.2,5-5,5l0,0c-2.7,0-5-2.2-5-5l0,0c0-2.7,2.2-5,5-5l0,0
	C75.1,289.9,77.4,292.1,77.4,294.8L77.4,294.8z"/>
<path fill="#F9F8F7" d="M77.4,307.2c0,2.7-2.2,5-5,5l0,0c-2.7,0-5-2.2-5-5l0,0c0-2.7,2.2-5,5-5l0,0
	C75.1,302.3,77.4,304.5,77.4,307.2L77.4,307.2z"/>
<path fill="#F9F8F7" d="M89.8,270.1c0,2.7-2.2,5-5,5l0,0c-2.7,0-5-2.2-5-5l0,0c0-2.7,2.2-5,5-5l0,0
	C87.5,265.1,89.8,267.3,89.8,270.1L89.8,270.1z"/>
<path fill="#F9F8F7" d="M89.8,282.5c0,2.7-2.2,5-5,5l0,0c-2.7,0-5-2.2-5-5l0,0c0-2.7,2.2-5,5-5l0,0
	C87.5,277.5,89.8,279.7,89.8,282.5L89.8,282.5z"/>
<path fill="#F9F8F7" d="M89.8,294.8c0,2.7-2.2,5-5,5l0,0c-2.7,0-5-2.2-5-5l0,0c0-2.7,2.2-5,5-5l0,0
	C87.5,289.9,89.8,292.1,89.8,294.8L89.8,294.8z"/>
<path fill="#F9F8F7" d="M89.8,307.2c0,2.7-2.2,5-5,5l0,0c-2.7,0-5-2.2-5-5l0,0c0-2.7,2.2-5,5-5l0,0
	C87.5,302.3,89.8,304.5,89.8,307.2L89.8,307.2z"/>
<path fill="#F9F8F7" d="M52.6,220.6c0,2.7-2.2,5-5,5l0,0c-2.7,0-5-2.2-5-5l0,0c0-2.7,2.2-5,5-5l0,0
	C50.4,215.6,52.6,217.8,52.6,220.6L52.6,220.6z"/>
<path fill="#F9F8F7" d="M52.6,232.9c0,2.7-2.2,5-5,5l0,0c-2.7,0-5-2.2-5-5l0,0c0-2.7,2.2-5,5-5l0,0C50.4,228,52.6,230.2,52.6,232.9
	L52.6,232.9z"/>
<path fill="#F9F8F7" d="M52.6,245.3c0,2.7-2.2,5-5,5l0,0c-2.7,0-5-2.2-5-5l0,0c0-2.7,2.2-5,5-5l0,0
	C50.4,240.3,52.6,242.6,52.6,245.3L52.6,245.3z"/>
<path fill="#F9F8F7" d="M52.6,257.7c0,2.7-2.2,5-5,5l0,0c-2.7,0-5-2.2-5-5l0,0c0-2.7,2.2-5,5-5l0,0C50.4,252.7,52.6,255,52.6,257.7
	L52.6,257.7z"/>
<path fill="#F9F8F7" d="M65,220.6c0,2.7-2.2,5-5,5l0,0c-2.7,0-5-2.2-5-5l0,0c0-2.7,2.2-5,5-5l0,0C62.8,215.6,65,217.8,65,220.6
	L65,220.6z"/>
<path fill="#F9F8F7" d="M65,232.9c0,2.7-2.2,5-5,5l0,0c-2.7,0-5-2.2-5-5l0,0c0-2.7,2.2-5,5-5l0,0C62.8,228,65,230.2,65,232.9
	L65,232.9z"/>
<path fill="#F9F8F7" d="M65,245.3c0,2.7-2.2,5-5,5l0,0c-2.7,0-5-2.2-5-5l0,0c0-2.7,2.2-5,5-5l0,0C62.8,240.3,65,242.6,65,245.3
	L65,245.3z"/>
<path fill="#F9F8F7" d="M65,257.7c0,2.7-2.2,5-5,5l0,0c-2.7,0-5-2.2-5-5l0,0c0-2.7,2.2-5,5-5l0,0C62.8,252.7,65,255,65,257.7
	L65,257.7z"/>
<path fill="#F9F8F7" d="M77.4,220.6c0,2.7-2.2,5-5,5l0,0c-2.7,0-5-2.2-5-5l0,0c0-2.7,2.2-5,5-5l0,0
	C75.1,215.6,77.4,217.8,77.4,220.6L77.4,220.6z"/>
<path fill="#F9F8F7" d="M77.4,232.9c0,2.7-2.2,5-5,5l0,0c-2.7,0-5-2.2-5-5l0,0c0-2.7,2.2-5,5-5l0,0C75.1,228,77.4,230.2,77.4,232.9
	L77.4,232.9z"/>
<path fill="#F9F8F7" d="M77.4,245.3c0,2.7-2.2,5-5,5l0,0c-2.7,0-5-2.2-5-5l0,0c0-2.7,2.2-5,5-5l0,0
	C75.1,240.3,77.4,242.6,77.4,245.3L77.4,245.3z"/>
<path fill="#F9F8F7" d="M77.4,257.7c0,2.7-2.2,5-5,5l0,0c-2.7,0-5-2.2-5-5l0,0c0-2.7,2.2-5,5-5l0,0C75.1,252.7,77.4,255,77.4,257.7
	L77.4,257.7z"/>
<path fill="#F9F8F7" d="M89.8,220.6c0,2.7-2.2,5-5,5l0,0c-2.7,0-5-2.2-5-5l0,0c0-2.7,2.2-5,5-5l0,0
	C87.5,215.6,89.8,217.8,89.8,220.6L89.8,220.6z"/>
<path fill="#F9F8F7" d="M89.8,232.9c0,2.7-2.2,5-5,5l0,0c-2.7,0-5-2.2-5-5l0,0c0-2.7,2.2-5,5-5l0,0C87.5,228,89.8,230.2,89.8,232.9
	L89.8,232.9z"/>
<path fill="#F9F8F7" d="M89.8,245.3c0,2.7-2.2,5-5,5l0,0c-2.7,0-5-2.2-5-5l0,0c0-2.7,2.2-5,5-5l0,0
	C87.5,240.3,89.8,242.6,89.8,245.3L89.8,245.3z"/>
<path fill="#F9F8F7" d="M89.8,257.7c0,2.7-2.2,5-5,5l0,0c-2.7,0-5-2.2-5-5l0,0c0-2.7,2.2-5,5-5l0,0C87.5,252.7,89.8,255,89.8,257.7
	L89.8,257.7z"/>
<path fill="#F9F8F7" d="M15.5,220.6c0,2.7-2.2,5-5,5l0,0c-2.7,0-5-2.2-5-5l0,0c0-2.7,2.2-5,5-5l0,0
	C13.2,215.6,15.5,217.8,15.5,220.6L15.5,220.6z"/>
<path fill="#F9F8F7" d="M27.8,220.6c0,2.7-2.2,5-5,5l0,0c-2.7,0-5-2.2-5-5l0,0c0-2.7,2.2-5,5-5l0,0
	C25.6,215.6,27.8,217.8,27.8,220.6L27.8,220.6z"/>
<path fill="#F9F8F7" d="M40.2,220.6c0,2.7-2.2,5-5,5l0,0c-2.7,0-5-2.2-5-5l0,0c0-2.7,2.2-5,5-5l0,0C38,215.6,40.2,217.8,40.2,220.6
	L40.2,220.6z"/>
<path fill="#F9F8F7" d="M15.5,232.9c0,2.7-2.2,5-5,5l0,0c-2.7,0-5-2.2-5-5l0,0c0-2.7,2.2-5,5-5l0,0C13.2,228,15.5,230.2,15.5,232.9
	L15.5,232.9z"/>
<path fill="#F9F8F7" d="M27.8,232.9c0,2.7-2.2,5-5,5l0,0c-2.7,0-5-2.2-5-5l0,0c0-2.7,2.2-5,5-5l0,0C25.6,228,27.8,230.2,27.8,232.9
	L27.8,232.9z"/>
<path fill="#F9F8F7" d="M40.2,232.9c0,2.7-2.2,5-5,5l0,0c-2.7,0-5-2.2-5-5l0,0c0-2.7,2.2-5,5-5l0,0C38,228,40.2,230.2,40.2,232.9
	L40.2,232.9z"/>
<path fill="#F9F8F7" d="M15.5,245.3c0,2.7-2.2,5-5,5l0,0c-2.7,0-5-2.2-5-5l0,0c0-2.7,2.2-5,5-5l0,0
	C13.2,240.3,15.5,242.6,15.5,245.3L15.5,245.3z"/>
<path fill="#F9F8F7" d="M27.8,245.3c0,2.7-2.2,5-5,5l0,0c-2.7,0-5-2.2-5-5l0,0c0-2.7,2.2-5,5-5l0,0
	C25.6,240.3,27.8,242.6,27.8,245.3L27.8,245.3z"/>
<path fill="#F9F8F7" d="M40.2,245.3c0,2.7-2.2,5-5,5l0,0c-2.7,0-5-2.2-5-5l0,0c0-2.7,2.2-5,5-5l0,0C38,240.3,40.2,242.6,40.2,245.3
	L40.2,245.3z"/>
<path fill="#F9F8F7" d="M15.5,257.7c0,2.7-2.2,5-5,5l0,0c-2.7,0-5-2.2-5-5l0,0c0-2.7,2.2-5,5-5l0,0C13.2,252.7,15.5,255,15.5,257.7
	L15.5,257.7z"/>
<path fill="#F9F8F7" d="M27.8,257.7c0,2.7-2.2,5-5,5l0,0c-2.7,0-5-2.2-5-5l0,0c0-2.7,2.2-5,5-5l0,0C25.6,252.7,27.8,255,27.8,257.7
	L27.8,257.7z"/>
<path fill="#F9F8F7" d="M40.2,257.7c0,2.7-2.2,5-5,5l0,0c-2.7,0-5-2.2-5-5l0,0c0-2.7,2.2-5,5-5l0,0C38,252.7,40.2,255,40.2,257.7
	L40.2,257.7z"/>
<path fill="#F9F8F7" d="M52.6,171c0,2.7-2.2,5-5,5l0,0c-2.7,0-5-2.2-5-5l0,0c0-2.7,2.2-5,5-5l0,0C50.4,166,52.6,168.3,52.6,171
	L52.6,171z"/>
<path fill="#F9F8F7" d="M52.6,183.4c0,2.7-2.2,5-5,5l0,0c-2.7,0-5-2.2-5-5l0,0c0-2.7,2.2-5,5-5l0,0
	C50.4,178.4,52.6,180.7,52.6,183.4L52.6,183.4z"/>
<path fill="#F9F8F7" d="M52.6,195.8c0,2.7-2.2,5-5,5l0,0c-2.7,0-5-2.2-5-5l0,0c0-2.7,2.2-5,5-5l0,0C50.4,190.8,52.6,193,52.6,195.8
	L52.6,195.8z"/>
<path fill="#F9F8F7" d="M52.6,208.2c0,2.7-2.2,5-5,5l0,0c-2.7,0-5-2.2-5-5l0,0c0-2.7,2.2-5,5-5l0,0
	C50.4,203.2,52.6,205.4,52.6,208.2L52.6,208.2z"/>
<path fill="#F9F8F7" d="M65,171c0,2.7-2.2,5-5,5l0,0c-2.7,0-5-2.2-5-5l0,0c0-2.7,2.2-5,5-5l0,0C62.8,166,65,168.3,65,171L65,171z"/>
<path fill="#F9F8F7" d="M65,183.4c0,2.7-2.2,5-5,5l0,0c-2.7,0-5-2.2-5-5l0,0c0-2.7,2.2-5,5-5l0,0C62.8,178.4,65,180.7,65,183.4
	L65,183.4z"/>
<path fill="#F9F8F7" d="M65,195.8c0,2.7-2.2,5-5,5l0,0c-2.7,0-5-2.2-5-5l0,0c0-2.7,2.2-5,5-5l0,0C62.8,190.8,65,193,65,195.8
	L65,195.8z"/>
<path fill="#F9F8F7" d="M65,208.2c0,2.7-2.2,5-5,5l0,0c-2.7,0-5-2.2-5-5l0,0c0-2.7,2.2-5,5-5l0,0C62.8,203.2,65,205.4,65,208.2
	L65,208.2z"/>
<path fill="#F9F8F7" d="M77.4,171c0,2.7-2.2,5-5,5l0,0c-2.7,0-5-2.2-5-5l0,0c0-2.7,2.2-5,5-5l0,0C75.1,166,77.4,168.3,77.4,171
	L77.4,171z"/>
<path fill="#F9F8F7" d="M77.4,183.4c0,2.7-2.2,5-5,5l0,0c-2.7,0-5-2.2-5-5l0,0c0-2.7,2.2-5,5-5l0,0
	C75.1,178.4,77.4,180.7,77.4,183.4L77.4,183.4z"/>
<path fill="#F9F8F7" d="M77.4,195.8c0,2.7-2.2,5-5,5l0,0c-2.7,0-5-2.2-5-5l0,0c0-2.7,2.2-5,5-5l0,0C75.1,190.8,77.4,193,77.4,195.8
	L77.4,195.8z"/>
<path fill="#F9F8F7" d="M77.4,208.2c0,2.7-2.2,5-5,5l0,0c-2.7,0-5-2.2-5-5l0,0c0-2.7,2.2-5,5-5l0,0
	C75.1,203.2,77.4,205.4,77.4,208.2L77.4,208.2z"/>
<path fill="#F9F8F7" d="M89.8,171c0,2.7-2.2,5-5,5l0,0c-2.7,0-5-2.2-5-5l0,0c0-2.7,2.2-5,5-5l0,0C87.5,166,89.8,168.3,89.8,171
	L89.8,171z"/>
<path fill="#F9F8F7" d="M89.8,183.4c0,2.7-2.2,5-5,5l0,0c-2.7,0-5-2.2-5-5l0,0c0-2.7,2.2-5,5-5l0,0
	C87.5,178.4,89.8,180.7,89.8,183.4L89.8,183.4z"/>
<path fill="#F9F8F7" d="M89.8,195.8c0,2.7-2.2,5-5,5l0,0c-2.7,0-5-2.2-5-5l0,0c0-2.7,2.2-5,5-5l0,0C87.5,190.8,89.8,193,89.8,195.8
	L89.8,195.8z"/>
<path fill="#F9F8F7" d="M89.8,208.2c0,2.7-2.2,5-5,5l0,0c-2.7,0-5-2.2-5-5l0,0c0-2.7,2.2-5,5-5l0,0
	C87.5,203.2,89.8,205.4,89.8,208.2L89.8,208.2z"/>
<path fill="#F9F8F7" d="M15.5,171c0,2.7-2.2,5-5,5l0,0c-2.7,0-5-2.2-5-5l0,0c0-2.7,2.2-5,5-5l0,0C13.2,166,15.5,168.3,15.5,171
	L15.5,171z"/>
<path fill="#F9F8F7" d="M27.8,171c0,2.7-2.2,5-5,5l0,0c-2.7,0-5-2.2-5-5l0,0c0-2.7,2.2-5,5-5l0,0C25.6,166,27.8,168.3,27.8,171
	L27.8,171z"/>
<path fill="#F9F8F7" d="M40.2,171c0,2.7-2.2,5-5,5l0,0c-2.7,0-5-2.2-5-5l0,0c0-2.7,2.2-5,5-5l0,0C38,166,40.2,168.3,40.2,171
	L40.2,171z"/>
<path fill="#F9F8F7" d="M15.5,183.4c0,2.7-2.2,5-5,5l0,0c-2.7,0-5-2.2-5-5l0,0c0-2.7,2.2-5,5-5l0,0
	C13.2,178.4,15.5,180.7,15.5,183.4L15.5,183.4z"/>
<path fill="#F9F8F7" d="M27.8,183.4c0,2.7-2.2,5-5,5l0,0c-2.7,0-5-2.2-5-5l0,0c0-2.7,2.2-5,5-5l0,0
	C25.6,178.4,27.8,180.7,27.8,183.4L27.8,183.4z"/>
<path fill="#F9F8F7" d="M40.2,183.4c0,2.7-2.2,5-5,5l0,0c-2.7,0-5-2.2-5-5l0,0c0-2.7,2.2-5,5-5l0,0C38,178.4,40.2,180.7,40.2,183.4
	L40.2,183.4z"/>
<path fill="#F9F8F7" d="M15.5,195.8c0,2.7-2.2,5-5,5l0,0c-2.7,0-5-2.2-5-5l0,0c0-2.7,2.2-5,5-5l0,0C13.2,190.8,15.5,193,15.5,195.8
	L15.5,195.8z"/>
<path fill="#F9F8F7" d="M27.8,195.8c0,2.7-2.2,5-5,5l0,0c-2.7,0-5-2.2-5-5l0,0c0-2.7,2.2-5,5-5l0,0C25.6,190.8,27.8,193,27.8,195.8
	L27.8,195.8z"/>
<path fill="#F9F8F7" d="M40.2,195.8c0,2.7-2.2,5-5,5l0,0c-2.7,0-5-2.2-5-5l0,0c0-2.7,2.2-5,5-5l0,0C38,190.8,40.2,193,40.2,195.8
	L40.2,195.8z"/>
<path fill="#F9F8F7" d="M15.5,208.2c0,2.7-2.2,5-5,5l0,0c-2.7,0-5-2.2-5-5l0,0c0-2.7,2.2-5,5-5l0,0
	C13.2,203.2,15.5,205.4,15.5,208.2L15.5,208.2z"/>
<path fill="#F9F8F7" d="M27.8,208.2c0,2.7-2.2,5-5,5l0,0c-2.7,0-5-2.2-5-5l0,0c0-2.7,2.2-5,5-5l0,0
	C25.6,203.2,27.8,205.4,27.8,208.2L27.8,208.2z"/>
<path fill="#F9F8F7" d="M40.2,208.2c0,2.7-2.2,5-5,5l0,0c-2.7,0-5-2.2-5-5l0,0c0-2.7,2.2-5,5-5l0,0C38,203.2,40.2,205.4,40.2,208.2
	L40.2,208.2z"/>
<path fill="none" stroke="#1B1919" stroke-width="3" stroke-miterlimit="10" d="M186.2,112.4"/>
<path fill="#7C2E17" d="M440.8,400.6c0,0,41.7-3.4,52.2-46.7c0,0,5.4-7.7-13.4-20.3c0,0-31.3-21.2-39.5-27.7
	c0,0-56.4-31.9-68.3-21.9c0,0-3.6,1.5-3.9,9.9c0,0-9.2-1-25.8,13.8c0,0-30.5,21.6-11.4,64.2c0,0,0.8,5.8,0.5,9.1
	c0,0,11.1,13.1,15.6,21.8c0,0-1.4,5.9-14.5,12.6c0,0-24.8,9.8-38.2,50.9c0,0,34.8,39.1,91.6,44c0,0,0.4,1.8,0.3-7.7
	c0,0-0.1-9.5,6.4-19.1c0,0,14-28.3,8-40.7c0,0,5.8-1.5,9.1-4.1c3.3-2.6,2.8-10.3,13.8-11.9c0,0,4.3-5.2,4.7-9.2
	C427.8,417.6,438.7,408.7,440.8,400.6z"/>
<path fill="#010101" d="M189,389.7c54.7,50,35,101.7,1.1,164.5"/>
<path fill="none" stroke="#1B1919" stroke-width="3" stroke-miterlimit="10" d="M319.5,534.1"/>
<path fill="none" stroke="#1B1919" stroke-width="3" stroke-miterlimit="10" d="M361.2,383.2"/>
<path fill="none" stroke="#1B1919" stroke-width="3" stroke-miterlimit="10" d="M277.1,569.3"/>
<path fill="none" stroke="#1B1919" stroke-width="3" stroke-miterlimit="10" d="M289,625.8"/>
<path fill="none" stroke="#1B1919" stroke-width="3" stroke-miterlimit="10" d="M253.9,575.2"/>
<path fill="#FDB813" d="M244.4,271.2l-40.4-6.9c0,0-6.8-9-6.8-12.7l-14,76.8l28.5,88.2c0,0,33.5,17.3,60.9-1.8L244.4,271.2z"/>
<path fill="#A77B2C" d="M224.6,191.6l23.5,32.4c0,0,16.1,1.5,22,10.7l-25.8,35.8l28.3,144.5c0,0,28.9-22.7,22.7-70.4l-34.9-174.7
	c0,0-10,1-13.3-0.9l-17,17.7L224.6,191.6z"/>
<path fill="#FFFFFF" d="M207.4,335.3l38.3-17.7l28.5,0.2C274.2,317.8,272.7,416.3,207.4,335.3z"/>
<path fill="#100809" d="M207.7,335.5l35,4.1l-3.7-19l6.7-3.1l4.3,18.5l24.6-17.6c0,0-0.9,13.5-1.9,15.9c0,0-32.2,24.8-64.5,2.2
	L207.7,335.5z"/>
<path fill="#7E2F19" stroke="#7E2F19" stroke-miterlimit="10" d="M206.1,330.5l1.4,4.2l38.2-17.5h35.6c0,0-5.7-32-29.3-8.6
	l-15.7-8.2L206.1,330.5z"/>
<path fill="#A94624" d="M205.7,330.3c0,0,6,45.7,34.4,49.3c0,0,31.9,3.7,40.8-22.3s0-40.3,0-40.3l-6.7,0.2c0,0,0.1,39.2-22.6,42.7
	C228.9,363.4,207.3,341.1,205.7,330.3z"/>
<polygon fill="#FFFFFF" points="231.3,188 231.9,190.8 258.8,180.6 255.3,163.3 "/>
<path fill="#1B1919" stroke="#1B1919" stroke-width="3" stroke-miterlimit="10" d="M233.2,185.1c0,0,13.4,1.1,15.3-6.6
	c-0.1,0.5,1.4-4.8-2.4-7.8L233.2,185.1z"/>
<polygon fill="#1B1919" stroke="#1B1919" stroke-miterlimit="10" points="256.8,185.2 228.8,191.3 227.6,188.8 256.2,182.4 "/>
<path fill="#674D1E" d="M77.7,263.5c0,0-4.5,3.5-7.1,5.2c0,0,54.4,98.8,73.5,108.2c19,9.4,48.5,17.6,48.5,17.6L77.7,263.5z"/>
<path fill="#A77B2C" d="M198.8,87.1c0,0-44.7,17-123.5-5.2c0,0-3.4,55.5,8.6,103l-16.3,47l9.4,35.3c0,0,117.3,131.1,134.7,148.7
	L185,329l12.5-76.8c0,0,0.5,10.9,9.9,12.5c9.4,1.6,27.6,4.1,27.6,4.1l-18.3-69.4l16.1-18.1L198.8,87.1z"/>
<path fill="#FDB813" stroke="#FDB813" stroke-miterlimit="10" d="M125.6,190.8c0,0-10.3,13.3,4.6,21.7l37.3-15.9l18.3,2.8
	l-35.8,21.2c0,0,17.4,18.9,31.7,9.2c14.3-9.8,22.3-34.5,22.3-34.5L125.6,190.8z"/>
<polygon fill="#1B1919" stroke="#1B1919" stroke-width="3" stroke-miterlimit="10" points="129.1,189.5 202.4,193.3 195.4,183.2 
	170.8,177.3 161.6,185.5 152.9,174.9 "/>
<polygon fill="#FFFFFF" stroke="#FFFFFF" stroke-width="3" stroke-miterlimit="10" points="130.5,212.3 166.5,196.6 184.8,199.4 
	148.1,219.6 "/>
<path fill="#1B1919" stroke="#1B1919" stroke-width="3" stroke-miterlimit="10" d="M138.9,208.5c0,0,6,5.7,13.7,3.4s10.1-6,8.1-12.8
	L138.9,208.5z"/>
<path fill="#FDB813" stroke="#FDB813" stroke-miterlimit="10" d="M225.3,192.6c0,0-5.8,3.1-8.6,6.8l18.3,69.4l9.3,1.6l19.5-27
	C263.8,243.4,229.2,196.8,225.3,192.6z"/>
<polygon fill="#1B1919" stroke="#1B1919" stroke-width="3" stroke-miterlimit="10" points="222.3,196.2 226.5,189.8 210.8,194.2 "/>
<path fill="#674D1E" d="M199.9,88.1c0,0-36.3,17.7-122.4-5.6c0,0-2.8,51.8,9.2,101.4l-18.2,48.6l-9.6-30.7l-30.4-15.6
	c0,0-50.5-102.7,19.1-157.4S199.9,88.1,199.9,88.1z"/>
<path fill="#FDB813" stroke="#FDB813" stroke-miterlimit="10" d="M10.9,177.1l47.2,23.3L79,265.6c0,0-12.7,18.5-31.9-7.5L10.9,177.1
	z"/>
<path fill="#A77B2C" d="M33.1,202.8c0,0-14.6,16.3,0.3,35.9c0,0,6.5,11,28.2,12.5L33.1,202.8z"/>
<path fill="none" stroke="#A77B2C" stroke-width="3" stroke-miterlimit="10" d="M17.9,188.7c0,0,12.8,2.9,17.5,11.4
	c4.8,8.5,8.5,9.5,14.5,6.1"/>
<path fill="#FFFFFF" stroke="#FFFFFF" stroke-miterlimit="10" d="M249.8,223.2l13.9,20.1l7.2-10.5
	C271,232.9,266.3,224.8,249.8,223.2z"/>
<path fill="#FDB813" d="M99.8,318.8l0.1,60.7c0,0-44.8,5.2-39.2,56.3c0,0,23.1,177.5,24.1,193.7h106.8l-1.9-236.6
	c0,0-48.5-14.4-53.2-24.8L99.8,318.8z"/>
<path fill="#A77B2C" d="M185.5,528.3c0,0,32.2-13.9,54,24.6l69.1-74.2c0,0,0.7,4.4,35.4,20.3c0,0-66,131-107.6,135
	c0,0-84.5-27.2-158.5-63.6c-20.6-10.1-105.2-70.1-39.4-139.7c0,0,68.8-55.9,132.1,38.6c0,0,17.2,21.3,14.9,60"/>
<path fill="none" stroke="#1B1919" stroke-width="3" stroke-miterlimit="10" d="M58.4,518.9c7.1-36.6,41.6-58.9,77-49.7
	c28.3,7.3,46.6,37,40.9,66.2c-4.6,23.4-26.6,37.7-49.3,31.8c-18.1-4.7-29.8-23.7-26.2-42.4c2.9-15,17-24.1,31.5-20.4
	c11.6,3,19.1,15.1,16.7,27.1c-1.9,9.6-10.9,15.4-20.2,13c-7.4-1.9-12.2-9.7-10.7-17.4c1.2-6.1,7-9.9,12.9-8.3
	c4.7,1.2,7.8,6.2,6.9,11.1"/>
<path fill="none" stroke="#1B1919" stroke-width="3" stroke-miterlimit="10" d="M275.9,537.3c-3.7-15.2,5.5-29.3,20.4-31.4
	c12-1.7,24,6.8,27,19c2.4,9.7-3.5,18.7-13.1,20.1c-7.7,1.1-15.4-4.3-17.3-12.1c-1.5-6.2,2.2-12,8.4-12.9c4.9-0.7,9.8,2.8,11.1,7.8
	c1,4-1.4,7.7-5.3,8.2c-3.1,0.4-6.3-1.8-7.1-5c-0.6-2.6,0.9-4.9,3.4-5.3c2-0.3,4,1.1,4.5,3.2"/>
<path fill="#FDB813" d="M249.4,169.8c0,0,24.6,3.7,28.6-10c0,0-1.6-16.2-13.7-6.1c-10,8.4-16.2,15.5-16.2,15.5L249.4,169.8z"/>
<path fill="#FDB813" d="M226.3,51.6c0,0,2.9,13.9-30.3,33.7l37.8,97.6l8.6-11.9c0,0,20.8-34.3,31.7-34.3
	C274.1,136.7,247.3,66.9,226.3,51.6z"/>
<g>
	<path fill="none" stroke="#674D1E" stroke-width="3" stroke-miterlimit="10" d="M253.1,87c0,0-5.7-15.1-23,17
		c0,0-10.6,32.5-30.2,29.6"/>
	<path fill="none" stroke="#674D1E" stroke-width="3" stroke-miterlimit="10" d="M256.6,95.7c0,0-3.5-8.7-25.7,26.1
		c0,0-15.4,28.6-37.4,25.4"/>
	<path fill="none" stroke="#674D1E" stroke-width="3" stroke-miterlimit="10" d="M264.6,114.6c0,0-8-25.3-30.5,21.5
		c0,0-16.2,32.2-51.9,25.6"/>
</g>
<path fill="#1B1919" stroke="#1B1919" stroke-width="3" stroke-miterlimit="10" d="M257.2,145.3c0,0,17.2-19.5,21.5-4.4
	c3.9,13.4-0.5,18.3-0.5,18.3s-1.8-16-13.7-6.1c-10.9,9-33.2,33.1-33.2,33.1l-7.1,5.3l-1.5-0.3l15.6-19.1L257.2,145.3z"/>
<path fill="#A77B2C" stroke="#A77B2C" stroke-miterlimit="10" d="M226.4,47.5c0,0,2.7,31.3-28.2,40.6c0,0-87.9-123-160.6-51
	c0,0,42.2-53.6,122.4-31.9C160.1,5.2,201.3,17.8,226.4,47.5z"/>
<path fill="#010101" stroke="#010101" stroke-width="3" stroke-miterlimit="10" d="M293.5,198.1c0,0,6.4,58.5-11.8,73.3l-20-100.4
	c0,0,9.3-1.9,15.1-8.4C276.8,162.6,291,174.9,293.5,198.1z"/>
</svg>
