<?xml version="1.0" encoding="utf-8"?>
<!-- Generator: Adobe Illustrator 18.1.1, SVG Export Plug-In . SVG Version: 6.00 Build 0)  -->
<svg version="1.1" id="Layer_1" xmlns="http://www.w3.org/2000/svg" xmlns:xlink="http://www.w3.org/1999/xlink" x="0px" y="0px"
	 viewBox="0 0 493.7 629.5" enable-background="new 0 0 493.7 629.5" xml:space="preserve">
<path fill="#010101" d="M291.5,196.7c0,0,11.1,53.6-11.8,73.3l-20-100.4c0,0,9.3-1.9,15.1-8.4C274.8,161.2,289.1,173.5,291.5,196.7z
	"/>
<path fill="#A77B2C" d="M225.3,191.8l22.8,32.2c0,0,16.1,1.5,22,10.7l-25.8,35.8l28.3,144.5c0,0,28.9-22.7,22.7-70.4l-34.9-174.7
	c0,0-10,1-13.3-0.9l-17,17.7L225.3,191.8z"/>
<path fill="#FDB813" d="M226.3,51.6c0,0,2.9,13.9-30.3,33.7l36.3,95.8c0,0,30.9-44.5,41.9-44.5C274.1,136.7,247.3,66.9,226.3,51.6z"
	/>
<path fill="#A77B2C" stroke="#A77B2C" stroke-miterlimit="10" d="M226.3,51.6c0,0,2.9,27.2-28,36.4c0,0-90.4-119.6-163-47.7
	c0,0,44.7-56.9,124.9-35.3C160.1,5.2,198.2,16.5,226.3,51.6z"/>
<path fill="#F9F8F7" d="M89.8,270.1c0,2.7-2.2,5-5,5l0,0c-2.7,0-5-2.2-5-5l0,0c0-2.7,2.2-5,5-5l0,0
	C87.5,265.1,89.8,267.3,89.8,270.1L89.8,270.1z"/>
<path fill="#F9F8F7" d="M89.8,282.5c0,2.7-2.2,5-5,5l0,0c-2.7,0-5-2.2-5-5l0,0c0-2.7,2.2-5,5-5l0,0
	C87.5,277.5,89.8,279.7,89.8,282.5L89.8,282.5z"/>
<path fill="#F9F8F7" d="M89.8,294.8c0,2.7-2.2,5-5,5l0,0c-2.7,0-5-2.2-5-5l0,0c0-2.7,2.2-5,5-5l0,0
	C87.5,289.9,89.8,292.1,89.8,294.8L89.8,294.8z"/>
<path fill="#F9F8F7" d="M89.8,307.2c0,2.7-2.2,5-5,5l0,0c-2.7,0-5-2.2-5-5l0,0c0-2.7,2.2-5,5-5l0,0
	C87.5,302.3,89.8,304.5,89.8,307.2L89.8,307.2z"/>
<path fill="#F9F8F7" d="M52.6,220.6c0,2.7-2.2,5-5,5l0,0c-2.7,0-5-2.2-5-5l0,0c0-2.7,2.2-5,5-5l0,0
	C50.4,215.6,52.6,217.8,52.6,220.6L52.6,220.6z"/>
<path fill="#F9F8F7" d="M52.6,232.9c0,2.7-2.2,5-5,5l0,0c-2.7,0-5-2.2-5-5l0,0c0-2.7,2.2-5,5-5l0,0C50.4,228,52.6,230.2,52.6,232.9
	L52.6,232.9z"/>
<path fill="#F9F8F7" d="M52.6,245.3c0,2.7-2.2,5-5,5l0,0c-2.7,0-5-2.2-5-5l0,0c0-2.7,2.2-5,5-5l0,0
	C50.4,240.3,52.6,242.6,52.6,245.3L52.6,245.3z"/>
<path fill="#F9F8F7" d="M65,220.6c0,2.7-2.2,5-5,5l0,0c-2.7,0-5-2.2-5-5l0,0c0-2.7,2.2-5,5-5l0,0C62.8,215.6,65,217.8,65,220.6
	L65,220.6z"/>
<path fill="#F9F8F7" d="M65,232.9c0,2.7-2.2,5-5,5l0,0c-2.7,0-5-2.2-5-5l0,0c0-2.7,2.2-5,5-5l0,0C62.8,228,65,230.2,65,232.9
	L65,232.9z"/>
<path fill="#F9F8F7" d="M65,245.3c0,2.7-2.2,5-5,5l0,0c-2.7,0-5-2.2-5-5l0,0c0-2.7,2.2-5,5-5l0,0C62.8,240.3,65,242.6,65,245.3
	L65,245.3z"/>
<path fill="#F9F8F7" d="M65,257.7c0,2.7-2.2,5-5,5l0,0c-2.7,0-5-2.2-5-5l0,0c0-2.7,2.2-5,5-5l0,0C62.8,252.7,65,255,65,257.7
	L65,257.7z"/>
<path fill="#F9F8F7" d="M77.4,220.6c0,2.7-2.2,5-5,5l0,0c-2.7,0-5-2.2-5-5l0,0c0-2.7,2.2-5,5-5l0,0
	C75.1,215.6,77.4,217.8,77.4,220.6L77.4,220.6z"/>
<path fill="#F9F8F7" d="M77.4,232.9c0,2.7-2.2,5-5,5l0,0c-2.7,0-5-2.2-5-5l0,0c0-2.7,2.2-5,5-5l0,0C75.1,228,77.4,230.2,77.4,232.9
	L77.4,232.9z"/>
<path fill="#F9F8F7" d="M77.4,245.3c0,2.7-2.2,5-5,5l0,0c-2.7,0-5-2.2-5-5l0,0c0-2.7,2.2-5,5-5l0,0
	C75.1,240.3,77.4,242.6,77.4,245.3L77.4,245.3z"/>
<path fill="#F9F8F7" d="M77.4,257.7c0,2.7-2.2,5-5,5l0,0c-2.7,0-5-2.2-5-5l0,0c0-2.7,2.2-5,5-5l0,0C75.1,252.7,77.4,255,77.4,257.7
	L77.4,257.7z"/>
<path fill="#F9F8F7" d="M89.8,220.6c0,2.7-2.2,5-5,5l0,0c-2.7,0-5-2.2-5-5l0,0c0-2.7,2.2-5,5-5l0,0
	C87.5,215.6,89.8,217.8,89.8,220.6L89.8,220.6z"/>
<path fill="#F9F8F7" d="M89.8,232.9c0,2.7-2.2,5-5,5l0,0c-2.7,0-5-2.2-5-5l0,0c0-2.7,2.2-5,5-5l0,0C87.5,228,89.8,230.2,89.8,232.9
	L89.8,232.9z"/>
<path fill="#F9F8F7" d="M89.8,245.3c0,2.7-2.2,5-5,5l0,0c-2.7,0-5-2.2-5-5l0,0c0-2.7,2.2-5,5-5l0,0
	C87.5,240.3,89.8,242.6,89.8,245.3L89.8,245.3z"/>
<path fill="#F9F8F7" d="M89.8,257.7c0,2.7-2.2,5-5,5l0,0c-2.7,0-5-2.2-5-5l0,0c0-2.7,2.2-5,5-5l0,0C87.5,252.7,89.8,255,89.8,257.7
	L89.8,257.7z"/>
<path fill="#F9F8F7" d="M52.6,171c0,2.7-2.2,5-5,5l0,0c-2.7,0-5-2.2-5-5l0,0c0-2.7,2.2-5,5-5l0,0C50.4,166,52.6,168.3,52.6,171
	L52.6,171z"/>
<path fill="#F9F8F7" d="M52.6,183.4c0,2.7-2.2,5-5,5l0,0c-2.7,0-5-2.2-5-5l0,0c0-2.7,2.2-5,5-5l0,0
	C50.4,178.4,52.6,180.7,52.6,183.4L52.6,183.4z"/>
<path fill="#F9F8F7" d="M52.6,195.8c0,2.7-2.2,5-5,5l0,0c-2.7,0-5-2.2-5-5l0,0c0-2.7,2.2-5,5-5l0,0C50.4,190.8,52.6,193,52.6,195.8
	L52.6,195.8z"/>
<path fill="#F9F8F7" d="M52.6,208.2c0,2.7-2.2,5-5,5l0,0c-2.7,0-5-2.2-5-5l0,0c0-2.7,2.2-5,5-5l0,0
	C50.4,203.2,52.6,205.4,52.6,208.2L52.6,208.2z"/>
<path fill="#F9F8F7" d="M65,171c0,2.7-2.2,5-5,5l0,0c-2.7,0-5-2.2-5-5l0,0c0-2.7,2.2-5,5-5l0,0C62.8,166,65,168.3,65,171L65,171z"/>
<path fill="#F9F8F7" d="M65,183.4c0,2.7-2.2,5-5,5l0,0c-2.7,0-5-2.2-5-5l0,0c0-2.7,2.2-5,5-5l0,0C62.8,178.4,65,180.7,65,183.4
	L65,183.4z"/>
<path fill="#F9F8F7" d="M65,195.8c0,2.7-2.2,5-5,5l0,0c-2.7,0-5-2.2-5-5l0,0c0-2.7,2.2-5,5-5l0,0C62.8,190.8,65,193,65,195.8
	L65,195.8z"/>
<path fill="#F9F8F7" d="M65,208.2c0,2.7-2.2,5-5,5l0,0c-2.7,0-5-2.2-5-5l0,0c0-2.7,2.2-5,5-5l0,0C62.8,203.2,65,205.4,65,208.2
	L65,208.2z"/>
<path fill="#F9F8F7" d="M77.4,171c0,2.7-2.2,5-5,5l0,0c-2.7,0-5-2.2-5-5l0,0c0-2.7,2.2-5,5-5l0,0C75.1,166,77.4,168.3,77.4,171
	L77.4,171z"/>
<path fill="#F9F8F7" d="M77.4,183.4c0,2.7-2.2,5-5,5l0,0c-2.7,0-5-2.2-5-5l0,0c0-2.7,2.2-5,5-5l0,0
	C75.1,178.4,77.4,180.7,77.4,183.4L77.4,183.4z"/>
<path fill="#F9F8F7" d="M77.4,195.8c0,2.7-2.2,5-5,5l0,0c-2.7,0-5-2.2-5-5l0,0c0-2.7,2.2-5,5-5l0,0C75.1,190.8,77.4,193,77.4,195.8
	L77.4,195.8z"/>
<path fill="#F9F8F7" d="M77.4,208.2c0,2.7-2.2,5-5,5l0,0c-2.7,0-5-2.2-5-5l0,0c0-2.7,2.2-5,5-5l0,0
	C75.1,203.2,77.4,205.4,77.4,208.2L77.4,208.2z"/>
<path fill="#F9F8F7" d="M89.8,171c0,2.7-2.2,5-5,5l0,0c-2.7,0-5-2.2-5-5l0,0c0-2.7,2.2-5,5-5l0,0C87.5,166,89.8,168.3,89.8,171
	L89.8,171z"/>
<path fill="#F9F8F7" d="M89.8,183.4c0,2.7-2.2,5-5,5l0,0c-2.7,0-5-2.2-5-5l0,0c0-2.7,2.2-5,5-5l0,0
	C87.5,178.4,89.8,180.7,89.8,183.4L89.8,183.4z"/>
<path fill="#F9F8F7" d="M89.8,195.8c0,2.7-2.2,5-5,5l0,0c-2.7,0-5-2.2-5-5l0,0c0-2.7,2.2-5,5-5l0,0C87.5,190.8,89.8,193,89.8,195.8
	L89.8,195.8z"/>
<path fill="#F9F8F7" d="M89.8,208.2c0,2.7-2.2,5-5,5l0,0c-2.7,0-5-2.2-5-5l0,0c0-2.7,2.2-5,5-5l0,0
	C87.5,203.2,89.8,205.4,89.8,208.2L89.8,208.2z"/>
<path fill="#F9F8F7" d="M40.2,171c0,2.7-2.2,5-5,5l0,0c-2.7,0-5-2.2-5-5l0,0c0-2.7,2.2-5,5-5l0,0C38,166,40.2,168.3,40.2,171
	L40.2,171z"/>
<path fill="#F9F8F7" d="M40.2,183.4c0,2.7-2.2,5-5,5l0,0c-2.7,0-5-2.2-5-5l0,0c0-2.7,2.2-5,5-5l0,0C38,178.4,40.2,180.7,40.2,183.4
	L40.2,183.4z"/>
<path fill="#F9F8F7" d="M40.2,195.8c0,2.7-2.2,5-5,5l0,0c-2.7,0-5-2.2-5-5l0,0c0-2.7,2.2-5,5-5l0,0C38,190.8,40.2,193,40.2,195.8
	L40.2,195.8z"/>
<path fill="none" stroke="#1B1919" stroke-width="3" stroke-miterlimit="10" d="M186.2,112.4"/>
<path fill="#7C2E17" d="M440.8,400.6c0,0,41.7-3.4,52.2-46.7c0,0,5.4-7.7-13.4-20.3c0,0-31.3-21.2-39.5-27.7
	c0,0-56.4-31.9-68.3-21.9c0,0-3.6,1.5-3.9,9.9c0,0-9.2-1-25.8,13.8c0,0-30.5,21.6-11.4,64.2c0,0,0.8,5.8,0.5,9.1
	c0,0,11.1,13.1,15.6,21.8c0,0-1.4,5.9-14.5,12.6c0,0-24.8,9.8-38.2,50.9c0,0,34.8,39.1,91.6,44c0,0,0.4,1.8,0.3-7.7
	c0,0-0.1-9.5,6.4-19.1c0,0,14-28.3,8-40.7c0,0,5.8-1.5,9.1-4.1c3.3-2.6,2.8-10.3,13.8-11.9c0,0,4.3-5.2,4.7-9.2
	C427.8,417.6,438.7,408.7,440.8,400.6z"/>
<path fill="#010101" d="M189,389.7c54.7,50,35,101.7,1.1,164.5"/>
<path fill="none" stroke="#1B1919" stroke-width="3" stroke-miterlimit="10" d="M319.5,534.1"/>
<path fill="none" stroke="#1B1919" stroke-width="3" stroke-miterlimit="10" d="M361.2,383.2"/>
<path fill="none" stroke="#1B1919" stroke-width="3" stroke-miterlimit="10" d="M277.1,569.3"/>
<path fill="none" stroke="#1B1919" stroke-width="3" stroke-miterlimit="10" d="M289,625.8"/>
<path fill="none" stroke="#1B1919" stroke-width="3" stroke-miterlimit="10" d="M253.9,575.2"/>
<path fill="#FDB813" d="M244.4,270.9l-40.1-7c0,0-7.1-8.5-7-12.2l-14,76.8l28.5,88.2c0,0,33.5,17.3,60.9-1.8L244.4,270.9z"/>
<path fill="#FFFFFF" stroke="#FFFFFF" stroke-miterlimit="10" d="M207.8,335.2l37.9-17.6h28.9C274.6,317.6,273.1,416.2,207.8,335.2z
	"/>
<path fill="#100809" d="M207.7,335.5l37.7,2.3l-4.3-17.9l4.6-2.1l4.3,18.4l24.6-17.6c0,0-0.9,13.5-1.9,15.9c0,0-32.2,24.8-64.5,2.2
	L207.7,335.5z"/>
<path fill="#7E2F19" stroke="#7E2F19" stroke-miterlimit="10" d="M206.1,330.5l1.4,4.2l38.2-17.5h35.6c0,0-5.7-32-29.3-8.6
	l-15.7-8.2L206.1,330.5z"/>
<path fill="#A94624" d="M205.7,330.3c0,0,6,45.7,34.4,49.3c0,0,31.9,3.7,40.8-22.3s0.8-39.7,0.8-39.7h-7.1c0,0-0.3,38.9-23,42.4
	C228.9,363.4,207.4,338.8,205.7,330.3z"/>
<polygon fill="#FFFFFF" points="247.1,168.9 226.8,189.6 263,181.1 260.7,170.1 "/>
<path fill="#1B1919" d="M232.8,184.7c0,0,13.4,1.8,15.6-5.7c-0.2,0.5,1.7-4.7-2-7.9L232.8,184.7z"/>
<polygon fill="#1B1919" points="263.2,183.9 225,192.9 228.6,189.3 262.7,181.1 "/>
<path fill="#674D1E" d="M77.7,263.5c0,0-4.5,3.5-7.1,5.2c0,0,54.4,98.8,73.5,108.2c19,9.4,48.5,17.6,48.5,17.6L77.7,263.5z"/>
<path fill="#A77B2C" d="M199.9,88.1c0,0-46.2,16.4-125-5.8c0,0-3.4,55.5,8.6,103l-14.7,46.4l10.8,34.1c0,0,114.3,132.8,131.7,150.4
	l-26.6-86.9l12.5-76.8c0,0,0.5,10.9,9.9,12.5c9.4,1.6,27.6,4.1,27.6,4.1l-18.3-69.4l16.1-18.1L199.9,88.1z"/>
<path fill="#FDB813" stroke="#FDB813" stroke-miterlimit="10" d="M125.6,190.8c0,0-10.3,13.3,4.6,21.7l37.3-15.9l18.3,2.8
	l-35.8,21.2c0,0,17.4,18.9,31.7,9.2c14.3-9.8,22.3-34.5,22.3-34.5L125.6,190.8z"/>
<polygon fill="#1B1919" points="125.6,189.6 205.3,194.9 195.4,183.2 170.8,177.3 161.6,185.5 152.9,174.9 "/>
<polygon fill="#FFFFFF" points="130.3,213.1 173.6,193.3 194.7,194.4 149.4,220.4 "/>
<path fill="#1B1919" d="M138.9,209.1c0,0,6,5.1,13.7,2.8s10.6-5.1,8.1-12.7L138.9,209.1z"/>
<path fill="#FDB813" stroke="#FDB813" stroke-miterlimit="10" d="M225.3,192.6c0,0-5.8,3.1-8.6,6.8l18.3,69.4l9.3,1.6l19.5-27
	C263.8,243.4,229.2,196.8,225.3,192.6z"/>
<polygon fill="#1B1919" points="216.2,199.4 225.4,191.8 205.3,194.9 "/>
<path fill="#674D1E" d="M199.9,88.1c0,0-66,25.8-122.4-5.6c0,0-2.8,51.8,9.2,101.4l-18.2,48.6l-9.6-30.7l-30.4-15.6
	c0,0-50.5-102.7,19.1-157.4S199.9,88.1,199.9,88.1z"/>
<path fill="#FDB813" stroke="#FDB813" stroke-miterlimit="10" d="M10.9,177.1l47.2,23.3L79,265.6c0,0-12.7,18.5-31.9-7.5L10.9,177.1
	z"/>
<path fill="#A77B2C" d="M33.1,202.8c0,0-14.6,16.3,0.3,35.9c0,0,6.5,11,28.2,12.5L33.1,202.8z"/>
<path fill="none" stroke="#A77B2C" stroke-width="3" stroke-miterlimit="10" d="M15.8,189c0,0,13.5-4.8,19.6,11.1
	c3.5,9.1,8.5,9.5,14.5,6.1"/>
<path fill="#FFFFFF" d="M249.6,223.5l14.8,19.9l7.9-11.9C272.3,231.5,263.8,219.1,249.6,223.5z"/>
<path fill="#FDB813" d="M99.8,318.8l0.1,60.7c0,0-44.8,5.2-39.2,56.3c0,0,23.1,177.5,24.1,193.7h106.8l-1.9-236.6
	c0,0-48.5-14.4-53.2-24.8L99.8,318.8z"/>
<path fill="#A77B2C" d="M185.5,528.3c0,0,32.2-13.9,54,24.6l69.1-74.2c0,0,0.7,4.4,35.4,20.3c0,0-66,131-107.6,135
	c0,0-84.5-27.2-158.5-63.6c-20.6-10.1-105.2-70.1-39.4-139.7c0,0,68.8-55.9,132.1,38.6c0,0,17.2,21.3,14.9,60"/>
<path fill="none" stroke="#1B1919" stroke-width="3" stroke-miterlimit="10" d="M58.4,518.9c7.1-36.6,41.6-58.9,77-49.7
	c28.3,7.3,46.6,37,40.9,66.2c-4.6,23.4-26.6,37.7-49.3,31.8c-18.1-4.7-29.8-23.7-26.2-42.4c2.9-15,17-24.1,31.5-20.4
	c11.6,3,19.1,15.1,16.7,27.1c-1.9,9.6-10.9,15.4-20.2,13c-7.4-1.9-12.2-9.7-10.7-17.4c1.2-6.1,7-9.9,12.9-8.3
	c4.7,1.2,7.8,6.2,6.9,11.1"/>
<path fill="none" stroke="#1B1919" stroke-width="3" stroke-miterlimit="10" d="M275.9,537.3c-3.7-15.2,5.5-29.3,20.4-31.4
	c12-1.7,24,6.8,27,19c2.4,9.7-3.5,18.7-13.1,20.1c-7.7,1.1-15.4-4.3-17.3-12.1c-1.5-6.2,2.2-12,8.4-12.9c4.9-0.7,9.8,2.8,11.1,7.8
	c1,4-1.4,7.7-5.3,8.2c-3.1,0.4-6.3-1.8-7.1-5c-0.6-2.6,0.9-4.9,3.4-5.3c2-0.3,4,1.1,4.5,3.2"/>
<path fill="none" stroke="#674D1E" stroke-width="3" stroke-miterlimit="10" d="M250.1,87c0,0-9.6-14.1-20.6,12.8
	c-1,2.5-2.5,4.7-3.5,7.2c-3.6,9.4-13.2,29-29.1,26.7"/>
<path fill="none" stroke="#674D1E" stroke-width="3" stroke-miterlimit="10" d="M254.5,96.5c-0.7-3.9-9.4-9.6-21.6,20
	c-2.9,7.1-7.1,13.7-12.5,19.3c-6.6,6.8-15.9,13.1-26.9,11.5"/>
<path fill="none" stroke="#674D1E" stroke-width="3" stroke-miterlimit="10" d="M264.6,114.6c0,0-7.6-24-28.9,18.2
	c-0.7,1.5-1.4,3-2.1,4.5c-2.7,5.8-17.4,32.8-51.4,24.5"/>
<path fill="#FDB813" d="M251,170c5.5,0.5,23.6,1.4,27-10.1c0,0-1.6-16.2-13.7-6.1c-10,8.4-16.2,15.5-16.2,15.5l0,0
	C249,169.6,250,169.9,251,170z"/>
<path fill="#1B1919" d="M278.9,142.3c4.8,13.1-1,17.6-1,17.6s-1.4-15.2-13.2-5.4c-10.9,9-39.7,38.4-39.7,38.4l-2.5,0.4
	C222.5,193.3,268.8,114.8,278.9,142.3z"/>
</svg>
