<?xml version="1.0" encoding="utf-8"?>
<!-- Generator: Adobe Illustrator 18.1.1, SVG Export Plug-In . SVG Version: 6.00 Build 0)  -->
<svg version="1.1" id="Layer_1" xmlns="http://www.w3.org/2000/svg" xmlns:xlink="http://www.w3.org/1999/xlink" x="0px" y="0px"
	 viewBox="0 0 792 1224" enable-background="new 0 0 792 1224" xml:space="preserve">
<path fill="#010101" d="M467.6,422.6c0,0,17.8,86-18.9,117.6l-32.1-161.1c0,0,14.9-3,24.2-13.5C440.8,365.7,463.8,385.4,467.6,422.6
	L467.6,422.6z"/>
<path fill="#A77B2C" d="M361.4,414.8l36.6,51.7c0,0,25.8,2.4,35.3,17.2L391.9,541l45.4,231.8c0,0,46.4-36.4,36.4-112.9l-56-280.3
	c0,0-16,1.6-21.3-1.4l-27.3,28.4L361.4,414.8L361.4,414.8z"/>
<path fill="#FDB813" d="M363,189.9c0,0,4.7,22.3-48.6,54.1l58.2,153.7c0,0,49.6-71.4,67.2-71.4C439.7,326.4,396.7,214.4,363,189.9
	L363,189.9z"/>
<path fill="#A77B2C" stroke="#A77B2C" stroke-miterlimit="10" d="M363,189.9c0,0,4.7,43.6-44.9,58.4c0,0-145-191.9-261.5-76.5
	c0,0,71.7-91.3,200.4-56.6C256.8,115.4,318,133.5,363,189.9L363,189.9z"/>
<path fill="none" stroke="#1B1919" stroke-width="3" stroke-miterlimit="10" d="M298.7,287.4"/>
<path fill="#7C2E17" d="M707.1,749.7c0,0,66.9-5.5,83.7-74.9c0,0,8.7-12.4-21.5-32.6c0,0-50.2-34-63.4-44.4
	c0,0-90.5-51.2-109.6-35.1c0,0-5.8,2.4-6.3,15.9c0,0-14.8-1.6-41.4,22.1c0,0-48.9,34.7-18.3,103c0,0,1.3,9.3,0.8,14.6
	c0,0,17.8,21,25,35c0,0-2.2,9.5-23.3,20.2c0,0-39.8,15.7-61.3,81.7c0,0,55.8,62.7,146.9,70.6c0,0,0.6,2.9,0.5-12.4
	c0,0-0.2-15.2,10.3-30.6c0,0,22.5-45.4,12.8-65.3c0,0,9.3-2.4,14.6-6.6c5.3-4.2,4.5-16.5,22.1-19.1c0,0,6.9-8.3,7.5-14.8
	C686.3,777,703.8,762.7,707.1,749.7L707.1,749.7z"/>
<path fill="#010101" d="M303.2,732.2c87.8,80.2,56.1,163.1,1.8,263.9"/>
<path fill="none" stroke="#1B1919" stroke-width="3" stroke-miterlimit="10" d="M407.3,1029.8"/>
<path fill="none" stroke="#1B1919" stroke-width="3" stroke-miterlimit="10" d="M463.6,1111"/>
<path fill="#FDB813" d="M392.1,541.7l-64.3-11.2c0,0-11.4-13.6-11.2-19.6l-22.5,123.2l45.7,141.5c0,0,53.7,27.8,97.7-2.9
	L392.1,541.7L392.1,541.7z"/>
<path fill="#FFFFFF" stroke="#FFFFFF" stroke-miterlimit="10" d="M333.4,644.8l60.8-28.2h46.4C440.5,616.6,438.1,774.7,333.4,644.8z
	"/>
<path fill="#100809" d="M333.2,645.3l60.5,3.7l-6.9-28.7l7.4-3.4l6.9,29.5l39.5-28.2c0,0-1.4,21.7-3,25.5c0,0-51.7,39.8-103.5,3.5
	L333.2,645.3L333.2,645.3z"/>
<path fill="#7E2F19" stroke="#7E2F19" stroke-miterlimit="10" d="M330.6,637.3l2.2,6.7l61.3-28.1h57.1c0,0-9.1-51.3-47-13.8
	L379.1,589L330.6,637.3L330.6,637.3z"/>
<path fill="#A94624" d="M330,636.9c0,0,9.6,73.3,55.2,79.1c0,0,51.2,5.9,65.5-35.8l1.3-63.7h-11.4c0,0-0.5,62.4-36.9,68
	C367.2,690,332.7,650.6,330,636.9L330,636.9z"/>
<path fill="#FFFFFF" d="M396.4,378l-32.6,33.2l58.1-13.6l-3.7-17.6L396.4,378z"/>
<path fill="#1B1919" d="M373.5,403.4c0,0,21.5,2.9,25-9.1c-0.3,0.8,2.7-7.5-3.2-12.7L373.5,403.4L373.5,403.4z M422.2,402.1
	l-61.3,14.4l5.8-5.8l54.7-13.2L422.2,402.1z"/>
<path fill="#674D1E" d="M124.6,529.8c0,0-7.2,5.6-11.4,8.3c0,0,87.3,158.5,117.9,173.6c30.5,15.1,77.8,28.2,77.8,28.2L124.6,529.8
	L124.6,529.8z"/>
<path fill="#A77B2C" d="M320.7,248.4c0,0-74.1,26.3-200.5-9.3c0,0-5.5,89,13.8,165.2l-23.8,75.1l17.6,54c0,0,183.4,213,211.3,241.3
	l-42.7-139.4l20.1-123.2c0,0,0.8,17.5,15.9,20.1c15.1,2.6,44.3,6.6,44.3,6.6l-29.4-111.3l25.8-29L320.7,248.4L320.7,248.4z"/>
<path fill="#FDB813" stroke="#FDB813" stroke-miterlimit="10" d="M201.5,413.2c0,0-16.5,21.3,7.4,34.8l59.8-25.5l29.4,4.5l-57.4,34
	c0,0,27.9,30.3,50.9,14.8c22.9-15.7,35.8-55.3,35.8-55.3L201.5,413.2z"/>
<path fill="#1B1919" d="M201.5,411.2l127.9,8.5L313.5,401l-39.5-9.5l-14.8,13.2l-14-17L201.5,411.2z"/>
<path fill="#FFFFFF" d="M209,448.9l69.5-31.8l33.8,1.8l-72.7,41.7L209,448.9z"/>
<path fill="#1B1919" d="M222.8,442.5c0,0,9.6,8.2,22,4.5c12.4-3.7,17-8.2,13-20.4L222.8,442.5z"/>
<path fill="#FDB813" stroke="#FDB813" stroke-miterlimit="10" d="M361.4,416c0,0-9.3,5-13.8,10.9L377,538.3l14.9,2.6l31.3-43.3
	C423.2,497.5,367.7,422.8,361.4,416L361.4,416z"/>
<path fill="#1B1919" d="M346.8,427l14.8-12.2l-32.2,5L346.8,427z"/>
<path fill="#674D1E" d="M320.7,248.4c0,0-105.9,41.4-196.4-9c0,0-4.5,83.1,14.8,162.7l-29.2,78l-15.4-49.2l-48.8-25
	c0,0-81-164.8,30.6-252.5C76.4,153.3,169,71.3,320.7,248.4L320.7,248.4z"/>
<path fill="#FDB813" stroke="#FDB813" stroke-miterlimit="10" d="M28.3,396l65.9,32.5l33.5,104.6c0,0-20.4,29.7-51.2-12L23,401.2
	C21.4,397.8,25,394.4,28.3,396z"/>
<path fill="#A77B2C" d="M53.1,432.4c0,0-23.4,26.1,0.5,57.6c0,0,10.4,17.6,45.2,20.1L53.1,432.4L53.1,432.4z"/>
<path fill="none" stroke="#A77B2C" stroke-width="3" stroke-miterlimit="10" d="M26.3,410.3c0,0,21.7-7.7,31.4,17.8
	c5.6,14.6,13.6,15.2,23.3,9.8"/>
<path fill="#FFFFFF" d="M400.4,465.6l23.7,31.9l12.7-19.1C436.8,478.4,423.2,458.6,400.4,465.6L400.4,465.6z"/>
<path fill="#FDB813" d="M160.1,618.5l0.2,97.4c0,0-71.9,8.3-62.9,90.3c0,0,37.1,284.7,38.7,310.7h171.3l-3-379.6
	c0,0-77.8-23.1-85.3-39.8L160.1,618.5L160.1,618.5z"/>
<path fill="#A77B2C" d="M297.6,954.6c0,0,51.7-22.3,86.6,39.5l110.9-119c0,0,1.1,7.1,56.8,32.6c0,0-105.9,210.2-172.6,216.6
	c0,0-135.6-43.6-254.3-102C97.3,1008.6-2.1,939,27.8,851.3c13.9-40.8,49.5-70.9,92-78c40.8-6.8,97.7,4.2,152.2,84.2
	c0.8,1.2,1.7,2.4,2.5,3.6c4.7,6.6,26.3,39.7,23,95"/>
<path fill="none" stroke="#1B1919" stroke-width="3" stroke-miterlimit="10" d="M93.7,939.5c11.4-58.7,66.7-94.5,123.5-79.7
	c45.4,11.7,74.8,59.4,65.6,106.2c-7.4,37.5-42.7,60.5-79.1,51c-29-7.5-47.8-38-42-68c4.7-24.1,27.3-38.7,50.5-32.7
	c18.6,4.8,30.6,24.2,26.8,43.5c-3,15.4-17.5,24.7-32.4,20.9c-11.9-3-19.6-15.6-17.2-27.9c1.9-9.8,11.2-15.9,20.7-13.3
	c7.5,1.9,12.5,9.9,11.1,17.8 M442.6,969c-5.9-24.4,8.8-47,32.7-50.4c19.3-2.7,38.5,10.9,43.3,30.5c3.9,15.6-5.6,30-21,32.2
	c-12.4,1.8-24.7-6.9-27.8-19.4c-2.4-9.9,3.5-19.3,13.5-20.7c7.9-1.1,15.7,4.5,17.8,12.5c1.6,6.4-2.2,12.4-8.5,13.2
	c-5,0.6-10.1-2.9-11.4-8c-1-4.2,1.4-7.9,5.5-8.5c3.2-0.5,6.4,1.8,7.2,5.1"/>
<path fill="none" stroke="#674D1E" stroke-width="3" stroke-miterlimit="10" d="M401.2,246.6c0,0-15.4-22.6-33,20.5l-5.6,11.6
	c-5.8,15.1-21.2,46.5-46.7,42.8 M408.3,261.9c-1.1-6.3-15.1-15.4-34.7,32.1c-4.7,11.4-11.4,22-20.1,31c-10.6,10.9-25.5,21-43.2,18.4
	 M424.5,290.9c0,0-12.2-38.5-46.4,29.2l-3.4,7.2c-4.3,9.3-27.9,52.6-82.5,39.3"/>
<path fill="#FDB813" d="M402.7,379.8c8.8,0.8,37.9,2.2,43.3-16.2c0,0-2.6-26-22-9.8c-16,13.5-26,24.9-26,24.9
	C399.4,379.1,401.1,379.6,402.7,379.8L402.7,379.8z"/>
<path fill="#1B1919" d="M447.4,335.4c7.7,21-1.6,28.2-1.6,28.2s-2.2-24.4-21.2-8.7c-17.5,14.4-63.7,61.6-63.7,61.6l-4,0.6
	C356.9,417.2,431.2,291.2,447.4,335.4L447.4,335.4z"/>
</svg>
