<svg xmlns="http://www.w3.org/2000/svg" viewBox="0 0 194.4 72" enable-background="new 0 0 194.4 72"><path d="M0 0h193.5v72h-193.5z" fill="none"/><path d="M18.4 16.2v14c0 1.5-.3 3-2.2 3-1.8 0-2.2-1.5-2.2-3v-14.4c0-.7.1-2.1-1-2.1-.5 0-.8.4-1.2.7l-1.9 1.8v14c0 1.5-.3 3-2.2 3s-2.2-1.5-2.2-3v-18.2c0-1.5.4-3.1 2.2-3.1 1.1 0 1.8.7 2.1 1.7l.4-.3c1.1-.9 1.8-1.4 3.3-1.4 1.7 0 3 .8 4 2.2l.4-.4c1.4-1.4 1.9-1.8 3.8-1.8 1.4 0 2.7.6 3.6 1.8 1.1 1.4 1 2.7 1 4.3l.5 14.9c0 1.5-.2 3.2-2.1 3.2-1.8 0-2.1-1.5-2.2-2.9l-.5-14.2c0-.8.2-2.3-1-2.3-.6 0-1.4 1.1-1.8 1.5l-.8 1zm17.8 11.2c-1 0-1.7 0-2.3-.9-.5-.7-.5-1.2-.5-2v-2.5c0-.9 0-1.3.5-2 .6-.9 1.3-.9 2.3-.9h3.2c1 0 1.7 0 2.3.9.5.7.5 1.2.5 2v2.5c0 .9 0 1.4-.5 2-.6.9-1.4.9-2.3.9h-3.2zm24.5-18.5c1.5 0 2.7.8 4.3 2.4l.7.8v-9.1c0-1.5.3-3 2.2-3 1.8 0 2.1 1.5 2.1 3v27.2c0 1.5-.3 3-2.2 3-1.7 0-2.2-1.4-2.2-2.9v-.3l-.9 1c-1.4 1.3-2.8 2.2-4.1 2.2h-4.2c-1.4 0-3.1-1-3.7-1.5l-1.5-1.3c-1.8-1.5-2.4-2.7-2.4-5v-8.7c0-2.3.6-3.5 2.4-5l1.5-1.3c1.3-1.1 2.3-1.5 4.1-1.5h3.9zm-7.6 14.8c0 1.2 0 2.7.7 3.3l1.3 1c.5.5 1.1.9 1.6.9h3.1c.5 0 1.3-.4 2.1-1.1l2.5-2.1c.6-.5 1.3-1.1 1.3-1.9v-5.4c0-.8-.6-1.3-1.3-1.9l-2.5-2.1c-.8-.7-1.6-1.1-2.1-1.1h-3.1c-.5 0-1.1.4-1.6.9l-1.3 1c-.7.5-.7 2.1-.7 3.3v5.2zm27 9.5c-1.8 0-2.5 0-3.9-1.2l-1.8-1.6c-1.7-1.5-2.2-2.5-2.2-4.9v-8.3c0-2.3.3-3.6 2.1-5.2l1.5-1.3c2-1.8 3-1.8 4.8-1.8h4c2.1 0 3.1.2 4.8 1.6l1.8 1.4c2 1.6 2.2 3.2 2.2 5.6v3.5c0 2.5-.4 3.2-3 3.2h-13.9v1.4c0 .4.3.9.6 1.3l1.1 1.2c.6.6 1.4.8 2.9.8h9.3c1.4 0 3 .3 3 2.2 0 1.9-1.7 2.2-3 2.2h-10.3zm-3.6-13.4h12.5v-2.6c0-.8 0-1.5-.5-2l-1.7-1.4c-.5-.5-1.4-.5-2.1-.5h-3.6c-.8 0-1.5 0-2.2.5l-1.5 1.1c-.5.4-.9.7-.9 2v2.9zm26.5-6.6c-.9 0-2.4-.2-2.4 1.2 0 .7.5 1 1.2 1.3l10.8 4.9c2.8 1.3 4.2 3 4.2 6.1 0 4.4-3 6.4-7.1 6.4h-6.7c-2.2 0-3.8-.1-5.4-1.4-.8-.6-2-1.4-2-2.5 0-1.2 1-2.2 2.2-2.2.7 0 1.2.2 1.7.8.8.9 2.1.9 3.5.9h5.8c1.5 0 3.6.1 3.6-2.4 0-1-1.3-1.7-2.2-2.2l-10.2-4.4c-2.4-1.1-3.8-2.5-3.8-5.3 0-3.4 2.7-5.5 5.9-5.5h7.4c2.4 0 3.4.1 5 1.5.8.7 1.7 1.2 1.7 2.4s-1 2.2-2.2 2.2c-.8 0-1.3-.3-1.8-.9-.7-.8-1.5-.9-2.7-.9h-6.5zm27 15.6h3.2c1.4 0 3 .3 3 2.2 0 1.9-1.7 2.2-3 2.2h-11c-1.3 0-3-.3-3-2.2 0-1.8 1.5-2.2 3-2.2h3.4v-15.6h-3.4c-1.3 0-3-.3-3-2.2 0-1.8 1.5-2.2 3-2.2h4.5c2.5 0 3.2.4 3.2 3v17zm-6.5-28.6c0-1.5.9-2 2-2h2.5c1.2 0 2 .5 2 2v2.1c0 1.5-.9 2-2 2h-2.5c-1.2 0-2-.5-2-2v-2.1zm13.5 16.8c0-2 .6-3.8 1.5-4.5l3.1-2.5c.9-.7 1.6-1 2.7-1h4.2c1.2 0 2.6.9 4.2 2.2l1.1.9v-.5c0-1.4.7-2.5 2.2-2.5 1.9 0 2.1 1.6 2.1 3v20.9c0 3.9-.3 4.7-2.1 6.3l-1.4 1.2c-1.9 1.6-3 1.8-5.4 1.8h-7.2c-1.3 0-3-.3-3-2.2 0-1.8 1.5-2.2 3-2.2h7.9c.9 0 1.5-.4 2.2-1l1.1-1c.4-.4.6-1 .6-1.8v-5.9l-.9.9c-1 1-2.3 2.1-3.6 2.1h-5.1c-.9 0-1.9-.1-3.2-1.3l-2.7-2.4c-1.3-1.2-1.3-2.3-1.3-4v-6.5zm4.3 5.9c0 .9 0 1.8.5 2.2l1.8 1.4c.3.3.7.4 1.3.4h3.1c.5 0 1.2-.5 2-1.1l3.3-2.7c.3-.3.5-.9.5-1.4v-3.1c0-.6-.1-1.2-.5-1.4l-3.3-2.7c-.8-.7-1.4-1.1-2-1.1h-3.1c-.5 0-.9.1-1.3.4l-1.8 1.4c-.5.4-.5 1.4-.5 2.2v5.5zm26.1-5.3v12.6c0 1.5-.3 3-2.2 3s-2.2-1.5-2.2-3v-18.1c0-1.6.2-3.2 2.2-3.2 1.9 0 2.2 1.6 2.2 3.1v.6l3.5-2.3c1.1-.7 2.3-1.4 3.7-1.4h3.2c1.7 0 2.7.4 4 1.6 1.9 1.7 1.8 3.5 1.9 5.9l.5 13.6c0 1.5-.2 3.2-2.1 3.2-1.8 0-2.1-1.5-2.2-2.9l-.4-13.3c-.1-2.7-.3-3.7-2.9-3.7h-1.4c-.4 0-.9.1-1.3.4l-6.5 3.9z"/></svg>