<?xml version="1.0" encoding="utf-8"?>
<!-- Generator: Adobe Illustrator 18.1.1, SVG Export Plug-In . SVG Version: 6.00 Build 0)  -->
<svg version="1.1" id="Layer_1" xmlns="http://www.w3.org/2000/svg" xmlns:xlink="http://www.w3.org/1999/xlink" x="0px" y="0px"
	 viewBox="0 0 194.4 72" enable-background="new 0 0 194.4 72" xml:space="preserve">
<g>
	<rect x="0" y="0" fill="none" width="193.5" height="72"/>
	<path d="M18.4,16.2v14c0,1.5-0.3,3-2.2,3c-1.8,0-2.2-1.5-2.2-3V15.8c0-0.7,0.1-2.1-1-2.1c-0.5,0-0.8,0.4-1.2,0.7l-1.9,1.8v14
		c0,1.5-0.3,3-2.2,3s-2.2-1.5-2.2-3V12c0-1.5,0.4-3.1,2.2-3.1c1.1,0,1.8,0.7,2.1,1.7l0.4-0.3c1.1-0.9,1.8-1.4,3.3-1.4
		c1.7,0,3,0.8,4,2.2l0.4-0.4c1.4-1.4,1.9-1.8,3.8-1.8c1.4,0,2.7,0.6,3.6,1.8c1.1,1.4,1,2.7,1,4.3l0.5,14.9c0,1.5-0.2,3.2-2.1,3.2
		c-1.8,0-2.1-1.5-2.2-2.9L22,16c0-0.8,0.2-2.3-1-2.3c-0.6,0-1.4,1.1-1.8,1.5L18.4,16.2z"/>
	<path d="M36.2,27.4c-1,0-1.7,0-2.3-0.9c-0.5-0.7-0.5-1.2-0.5-2V22c0-0.9,0-1.3,0.5-2c0.6-0.9,1.3-0.9,2.3-0.9h3.2
		c1,0,1.7,0,2.3,0.9c0.5,0.7,0.5,1.2,0.5,2v2.5c0,0.9,0,1.4-0.5,2c-0.6,0.9-1.4,0.9-2.3,0.9H36.2z"/>
	<path d="M60.7,8.9c1.5,0,2.7,0.8,4.3,2.4l0.7,0.8V3c0-1.5,0.3-3,2.2-3C69.7,0,70,1.5,70,3v27.2c0,1.5-0.3,3-2.2,3
		c-1.7,0-2.2-1.4-2.2-2.9V30L64.7,31c-1.4,1.3-2.8,2.2-4.1,2.2h-4.2c-1.4,0-3.1-1-3.7-1.5l-1.5-1.3c-1.8-1.5-2.4-2.7-2.4-5v-8.7
		c0-2.3,0.6-3.5,2.4-5l1.5-1.3C54,9.3,55,8.9,56.8,8.9H60.7z M53.1,23.7c0,1.2,0,2.7,0.7,3.3l1.3,1c0.5,0.5,1.1,0.9,1.6,0.9h3.1
		c0.5,0,1.3-0.4,2.1-1.1l2.5-2.1c0.6-0.5,1.3-1.1,1.3-1.9v-5.4c0-0.8-0.6-1.3-1.3-1.9l-2.5-2.1c-0.8-0.7-1.6-1.1-2.1-1.1h-3.1
		c-0.5,0-1.1,0.4-1.6,0.9l-1.3,1c-0.7,0.5-0.7,2.1-0.7,3.3V23.7z"/>
	<path d="M80.1,33.2c-1.8,0-2.5,0-3.9-1.2l-1.8-1.6c-1.7-1.5-2.2-2.5-2.2-4.9v-8.3c0-2.3,0.3-3.6,2.1-5.2l1.5-1.3
		c2-1.8,3-1.8,4.8-1.8h4c2.1,0,3.1,0.2,4.8,1.6l1.8,1.4c2,1.6,2.2,3.2,2.2,5.6V21c0,2.5-0.4,3.2-3,3.2H76.5v1.4
		c0,0.4,0.3,0.9,0.6,1.3l1.1,1.2c0.6,0.6,1.4,0.8,2.9,0.8h9.3c1.4,0,3,0.3,3,2.2c0,1.9-1.7,2.2-3,2.2H80.1z M76.5,19.8h12.5v-2.6
		c0-0.8,0-1.5-0.5-2l-1.7-1.4c-0.5-0.5-1.4-0.5-2.1-0.5h-3.6c-0.8,0-1.5,0-2.2,0.5l-1.5,1.1c-0.5,0.4-0.9,0.7-0.9,2V19.8z"/>
	<path d="M103,13.2c-0.9,0-2.4-0.2-2.4,1.2c0,0.7,0.5,1,1.2,1.3l10.8,4.9c2.8,1.3,4.2,3,4.2,6.1c0,4.4-3,6.4-7.1,6.4H103
		c-2.2,0-3.8-0.1-5.4-1.4c-0.8-0.6-2-1.4-2-2.5c0-1.2,1-2.2,2.2-2.2c0.7,0,1.2,0.2,1.7,0.8c0.8,0.9,2.1,0.9,3.5,0.9h5.8
		c1.5,0,3.6,0.1,3.6-2.4c0-1-1.3-1.7-2.2-2.2L100,19.7c-2.4-1.1-3.8-2.5-3.8-5.3c0-3.4,2.7-5.5,5.9-5.5h7.4c2.4,0,3.4,0.1,5,1.5
		c0.8,0.7,1.7,1.2,1.7,2.4c0,1.2-1,2.2-2.2,2.2c-0.8,0-1.3-0.3-1.8-0.9c-0.7-0.8-1.5-0.9-2.7-0.9H103z"/>
	<path d="M130,28.8h3.2c1.4,0,3,0.3,3,2.2c0,1.9-1.7,2.2-3,2.2h-11c-1.3,0-3-0.3-3-2.2c0-1.8,1.5-2.2,3-2.2h3.4V13.2h-3.4
		c-1.3,0-3-0.3-3-2.2c0-1.8,1.5-2.2,3-2.2h4.5c2.5,0,3.2,0.4,3.2,3V28.8z M123.5,0.2c0-1.5,0.9-2,2-2h2.5c1.2,0,2,0.5,2,2v2.1
		c0,1.5-0.9,2-2,2h-2.5c-1.2,0-2-0.5-2-2V0.2z"/>
	<path d="M137,17c0-2,0.6-3.8,1.5-4.5l3.1-2.5c0.9-0.7,1.6-1,2.7-1h4.2c1.2,0,2.6,0.9,4.2,2.2l1.1,0.9v-0.5c0-1.4,0.7-2.5,2.2-2.5
		c1.9,0,2.1,1.6,2.1,3V33c0,3.9-0.3,4.7-2.1,6.3l-1.4,1.2c-1.9,1.6-3,1.8-5.4,1.8h-7.2c-1.3,0-3-0.3-3-2.2c0-1.8,1.5-2.2,3-2.2h7.9
		c0.9,0,1.5-0.4,2.2-1l1.1-1c0.4-0.4,0.6-1,0.6-1.8v-5.9l-0.9,0.9c-1,1-2.3,2.1-3.6,2.1h-5.1c-0.9,0-1.9-0.1-3.2-1.3l-2.7-2.4
		c-1.3-1.2-1.3-2.3-1.3-4V17z M141.3,22.9c0,0.9,0,1.8,0.5,2.2l1.8,1.4c0.3,0.3,0.7,0.4,1.3,0.4h3.1c0.5,0,1.2-0.5,2-1.1l3.3-2.7
		c0.3-0.3,0.5-0.9,0.5-1.4v-3.1c0-0.6-0.1-1.2-0.5-1.4l-3.3-2.7c-0.8-0.7-1.4-1.1-2-1.1h-3.1c-0.5,0-0.9,0.1-1.3,0.4l-1.8,1.4
		c-0.5,0.4-0.5,1.4-0.5,2.2V22.9z"/>
	<path d="M167.4,17.6v12.6c0,1.5-0.3,3-2.2,3s-2.2-1.5-2.2-3V12.1c0-1.6,0.2-3.2,2.2-3.2c1.9,0,2.2,1.6,2.2,3.1v0.5v0.1l3.5-2.3
		c1.1-0.7,2.3-1.4,3.7-1.4h3.2c1.7,0,2.7,0.4,4,1.6c1.9,1.7,1.8,3.5,1.9,5.9l0.5,13.6c0,1.5-0.2,3.2-2.1,3.2c-1.8,0-2.1-1.5-2.2-2.9
		l-0.4-13.3c-0.1-2.7-0.3-3.7-2.9-3.7h-1.4c-0.4,0-0.9,0.1-1.3,0.4L167.4,17.6z"/>
</g>
<g>
</g>
<g>
</g>
<g>
</g>
<g>
</g>
<g>
</g>
<g>
</g>
</svg>
