<?xml version="1.0" encoding="utf-8"?>
<!-- Generator: Adobe Illustrator 18.1.1, SVG Export Plug-In . SVG Version: 6.00 Build 0)  -->
<svg version="1.1" id="Layer_1" xmlns="http://www.w3.org/2000/svg" xmlns:xlink="http://www.w3.org/1999/xlink" x="0px" y="0px"
	 viewBox="304 374.5 4 1.8" enable-background="new 304 374.5 4 1.8" xml:space="preserve">
<g>
	<path fill="#231F20" stroke="#FFFFFF" stroke-width="7.408657e-03" stroke-miterlimit="10" d="M307.8,375h-3.5
		c-0.1,0-0.2-0.1-0.2-0.2l0,0c0-0.1,0.1-0.2,0.2-0.2h3.5c0.1,0,0.2,0.1,0.2,0.2l0,0C308,374.9,307.9,375,307.8,375z"/>
	<path fill="#231F20" stroke="#FFFFFF" stroke-width="7.408657e-03" stroke-miterlimit="10" d="M307.8,375.6h-3.5
		c-0.1,0-0.2-0.1-0.2-0.2l0,0c0-0.1,0.1-0.2,0.2-0.2h3.5c0.1,0,0.2,0.1,0.2,0.2l0,0C308,375.5,307.9,375.6,307.8,375.6z"/>
	<path fill="#231F20" stroke="#FFFFFF" stroke-width="7.408657e-03" stroke-miterlimit="10" d="M307.8,376.2h-3.5
		c-0.1,0-0.2-0.1-0.2-0.2l0,0c0-0.1,0.1-0.2,0.2-0.2h3.5c0.1,0,0.2,0.1,0.2,0.2l0,0C308,376.1,307.9,376.2,307.8,376.2z"/>
</g>
</svg>
