<svg xmlns="http://www.w3.org/2000/svg" viewBox="0 0 418.8 401.7" enable-background="new 0 0 418.8 401.7"><path fill="#000376" d="M395.5 239.4s-10.8-13.9-50.2 4.5l-50.2 21.7s1.4-11.7-11.1-11.2c0 0-7 1.5-9.8 3.2 0 0-1.5-.2-3-2.5 0 0-2.5-4.2-6.5-2 0 0-7.2 1.5-12 9.5 0 0-5 7.2-6.5 7.5-1.5.3-18-6.3-19.2 0 0 0-1 4.8 0 11.8 0 0 .3 17.5-.4 21.1 0 0-1.3 12.9 6.8 9.7 0 0 9.6-4.2 13.1-5.3 0 0 4.6-3.1 8.8 4.2 0 0 8 8.5 14.2 3.3 0 0 4.5-3.1 8.8-.1 0 0 8.6 3.9 10.9-1.1 0 0 2.4-4.7 6.5-5.3 0 0 4-.5 4.4-8.5 0 0 42.5-1.9 54.4-2.8 0 0 23.1.1 44.6-27.7 0 0-39.5 21.2-98.5 22.4l-.7-2.1s92.9-14.2 118.9-41.5c0 0-16-8.9-120.8 31.6l-1-1.9c0-.1 92.3-34.6 98.5-38.5z"/><path fill="#FF3700" d="M191.5 389.3s2.1-5.4 7.4-4.9c0 0 78.7 13.5 93.4 13.5 0 0 26.3 5.6 63-13.5l-156.4-9.8s-1.6-2.9.8-4.5c0 0 129.2-4.8 179.2 14.2 0 0-31-42.4-176-26.1 0 0-2.3-3.3-.3-5.3 2-2 60.5-18.3 157.3 10 0 0-20.9-48.1-158.7-19.7 0 0-2.6-13.6-23.3-11.3 0 0-3.5-18.6-26-6.7 0 0-17.8 14.4-41.7-2.7 0 0 6.9.3 11.6-6 0 0-20.6 1.9-25.3-9 0 0 5.9 1.6 9 5 0 0-3.7-16.6-20.7-24 0 0-.2-4.9 6-6.3 0 0 14.2-1.8 17-15.7 0 0 3.2 11.4 15.7 14 0 0 23.1 6 20.7 34.7 0 0-1.7 8.4 1 8.7 0 0 22-16.1 34.1 1.5 0 0 3.1-1.7 5.4-1.6 2 .1 3 .2 6.9 3.7-4.7-4.5-9.2-10-5.3-16 0 0-7.8-7.8-7.7-21.7 0 0-16.9-8.7-20.6-17.4 0 0 37.6 18.4 54.7-11.4l4.2 2-.6 33.4-6.8 5.4-.3-11-4.5-13-1.4 13 1.2 11.4-11.2-2.2-11-15.8 8.1 20.8 14.2 2.6 2 21.8-8.5-5.3-7.3-13.4 3.6 15.3 13.4 9.6 11.8-9.1 2.4-65.7s40.1-17.8 16.7-57.5c0 0-33.8-44-31.9-48.1 0 0-.2-3.6 9.5-5 0 0 33.4-5.6 38.4-9.3 0 0 23-9.4 13-27.7h-4s1-9.7-11.7-16.3c0 0 8.3 16-6.3 21.3l-15.6 1.2s-20.1-.8-21.8-32.6h4.3s18-44.7 29.3-21c0 0 6.8-10.1 0-18 0 0 3.4-2.3 8.3 6 0 0 .8-26.7-10.3-24.7 0 0-8.9.8-14.3 12.7 0 0-6.7 16.8-22.2 31 0 0-7.5 6-6.7 9.5 0 0-2.5 25.8-1.3 28.5 1.2 2.7 7.2 22.2 38 24.7 0 0-4.7 3.4-16.7 2.6 0 0-38.5 2.9-23.1 46.9 0 0 .8-17.3 5.1-20.3.1-.1.3-.2.4-.2 0 0 30.2 38.7 32.7 48.7 0 0 12.4 27.7-16.2 35 0 0-2.2-31.4-19.5-44.6 0 0 12.4 39.4.6 46.6 0 0-25.2 18.1-48.5-4.8 0 0-19-20.8-5-51.2 0 0 5.2-10.3 7.5-11.5 0 0-23.1 2.4-36.1-12.6 0 0-3.2 2.6 4 14.6 0 0 .9 11.3-11.4 1.8 0 0-4 12.4-19.3 10.3 0 0 3.5 14.7 3.3 15s-14.8-8.2-22.7 1.7c0 0 9-3.3 13.9 7.8 0 0 3.4 5.1-1.2 9.6 0 0-10.1 5.4-26 43.1 0 0-2.8 9-14.9 15.4 0 0 23.6-7.8 40.9 5.5 0 0-10.8 2.2-10.1 3.7 0 0 19.1.4 20 20.4 0 0 8.3-3 8.7 2.2 0 0 5.5 22.5 40.8 18.7 3.3-.4 7.2-5 12.5-7.5 0 0 9.2-6.3 12.5-1.1 0 0 1 .6-1.8 7.7 0 0-.4 2.7 3.8 1.6 0 0 8.8-3.5 12.6-1.7 2.1 1 2.5 7.7-.5 8.7l-13.2 1.7s8.9-.3 13.9.8c1.9.4 2.2 5.4 1 7.4 0 0-1.8 3.4-14.8 2.6 0 0 10 .5 13.7 3 1.3.8 1 7.3-.3 8.6-2.6 2.5-9.5 2.9-15.2 2.3 0 0 6.4 1.4 9.8 3 3.7 1.8 1.7 11.2-1.4 12.6-1.9.9-5.2.3-10.9-.1-16.8-1.1-23-8.6-23-8.6-7.5-8-19.9-4.6-19.9-4.6 7.1-5 4.6-8.6 4.6-8.6-7.2 6.3-10.8 3.1-10.8 3.1-11.8-9.3-18.1-4-18.4-5.2-.4-1.7 1.7-1.6 1.7-1.6-1.6-4.7-23.6-5.8-23.6-5.8 2.4-1.5 4.5-3.8 4.5-3.8-15.1-2.6-19.9-7-19.9-7 2.9-.7 5.7-3.6 5.7-3.6-26.5-5.5-34.8-31.3-34.8-31.3-1.1-7.7-5.1-12.8-5.1-12.8 4.7-3.6 6.9-9.9 6.9-9.9-4.2.1-6.9-1.8-6.9-1.8 16.3-24.3 1.1-37.3 1.1-37.3l4.4-.7-.9-3.1c28.1-1.8 32.6-25 32.6-25-2.1 2-4.7 3.1-4.7 3.1 8.6-11.1 5.8-18.2 5.8-18.2-2.3 3.5-3.9 3-3.9 3l6-14.1c1.5.2 16.4-3.1 16.4-3.1-1.1-5.8-3.8-17.5-3.8-17.5l12.7-12.7c-1.3-1.5-6.3-1.3-6.3-1.3-1.1-1.3-1.1-4.9-1.1-4.9 22 7.9 31.4-.1 31.4-.1 18.7-10.6 13.4-30.2 13.4-30.2-4.4-11.1-.7-17.2-.7-17.2 5.6-8.4-4.1-10.4-4.1-10.4-26.4-6.8-35.2-34.2-35.2-34.2 36.7-7.7 54.3 27.4 54.3 27.4 3.8 4.9 3.2-1.3 3.2-1.3-.7-3.3.5-16.5.5-16.5-2.7-4.3-8.1-4.4-8.1-4.4-2.1-5.9 6.4-6.7 6.4-6.7 4.2-1.1 5.3-4.2 5.3-4.2 4.6-7.7 13.7-4.9 13.7-4.9 30.4 7.2 37.4-5 37.4-5 12.8-20.7 19.8-22.2 19.8-22.2 6.5-2 7.2-7.2 7.2-7.2 2.3-9.7 6.4-7 6.4-7 8.6 4.7-1.4 10.2-1.4 10.2-11 4.9-7.1 8.6-7.1 8.6 2.2 3.1 13.7-6.1 13.7-6.1s2.2 2.4 4.5 0c0 0 7.1-25.6-13.5-24.6 0 0-5.4 0-9.1 12 0 0-2.5 5.4-3.9 6.9 0 0-3 3.3-8.8 4.5 0 0-9.1 2.4-12.9 9.9 0 0-4.9 7.6-9 8 0 0-3.2 1.4-9-2.8 0 0-9.7-6.3-17.4-2.5 0 0-3 .9-9.1 7.1 0 0-3.8 4.1-13.2 4.2 0 0-15.3 1.1-16.1 10.8 0 0-15.5-10.6-45.4-2 0 0 2.8 35.1 45 50.8 0 0-3.2 4.5-3.1 20.9l-3-.9s-1.4 45.8-50.7 5.5c-.3-.2 5.3 7.8 4.5 17.6 0 0-1.8 7.2 3.5 12.8 0 0-4.2 4.4-5.5 5.1 0 0-1.2.9-.9 2.8 0 0 .8 10 .9 11.2 0 0 .2 1.6-1.1 1.5 0 0-2.2.2-5.9-.6 0 0-15.6 42.2-27.4 43.4 0 0 .2.6.6 1 .2.1-.3.4-1.2.3 0 0 5.4 4.1 9.1 3.9 0 0 .2.9-1.7.9 0 0 2.8 3.3.6 4 0 0-19.2 4-27.6-5.2 0 0-.6.5-.1 2.8 0 0 .8 6.1 7.3 10.9v.1s-6.3.2-9.6 3.4c0 0 17.4 1.8 16.1 18.8 0 0-1.4 20.5-24.8 14.7 0 0 6.5 13.3 17.9 13.9 0 0-13.1-2.5-17.2 3.3 0 0 17.4-4.8 20 19.5 0 0 1 18.8 20 25.4 0 0-6.3.9-10.3-.7 0 0 2.1 7.7 21.9 14.5 0 0-2.6 2.5-8 3.3 0 0-.3 4 12.4 2.7 0 0 7.6-1.3 15.1 3.8 0 0 0 4.1-4.3 7.8 0 0 16-8.8 38.5 1.6 0 0 1.7.9 5.2-.1 0 0-1.5 6.6 1.8 11.3 0 0 3-14.1 19.2-3.7 0 0 15.8 9.7 18 11.3.2-.5 32 17.1 41.5-6.6"/><path fill="#FF3700" d="M213.7 47.1s-42.2 25.1-51.3 83.9c0 0 3.8-9.2 8.9-12 0 0-2.8 25.5 10 41.7 0 0-7.9-22.6-1.9-35.7 0 0 14.7 13.5 27.5 8.9 0-.1-51.8-16.6 6.8-86.8zm68.5 236.1s-4.5-7.1 2.5-7.7c0 0 6.9-.4 4.3 7.2l-3.7-4.1-3.1 4.6zm-.7 12.2s-4.7-7.2 2.6-8.2c0 0 6.9 0 4.2 7.6l-3.7-4.1-3.1 4.7zm-8.3-28.1s-3.6-6.2-4.9-4.2c-1.3 1.9-2.5 3.4-8.6 2.6 0 0-4.9-.1-4.2 3.5 0 0 2.3 3.4-3.7 5.4 0 0-1.9.1-2.5 4.3 0 0-.8 4.2-6.5 1.7 0 0-8.8-4.8-8.6-1.1 0 0 .5 17.9 1.1 19.2s2.1 4 5.8 1.9c0 0 8.8-4 15.9-.6 0 0 1.3 5.6 6.4 5.6 0 0 5.6 0 3.1-4.2 0 0-2.1-4.6-5-5.9 0 0-1.4-.6-.5-2.6 0 0 .6-1.5 2-2.7 0 0-4.2-1.8-9.1 3.3 0 0-1.9 3.3-2.9 1 0 0-.9-4 2.9-8.6 0 0-3.4-1.9-2.5-6.5 0 0 1-.3 1.7 1.2 0 0 4.3 6.4 9.3 2.1 0 0 1-2.5-1.7-4.7 0 0-3.5-2.4-2.5-3.9 0 0 1.6-.9 1.9-2.4.2-1 1.8-1.3 2.4.3 0 0 3.9 7.6 6.1 7.4 2.2-.1 4.2-.6 5.5-2.8 0 0 .7-.9-.6-.9 0 0-3.9-.7-3.9-4.1 0 0-.5-2.2 2.2-3.2-.2.4 1.8-.2 1.4-1.1zm7.7 2.1s-3.1-4.5 1.7-6c0 0 5.3-1 4.5 4.9l-3.9-2.4-2.3 3.5zm-.8 33.5s-1.5-5.2 3.5-5.2c0 0 5.4.7 2.7 6l-3-3.5-3.2 2.7zm-107.2-245.5l-25.3 11.6s1.3 14.5 11.7 18l15.6-26.3-2-3.3z"/><path fill="#fff" d="M171.5 60.2l-18.8 10.6s.5 6.4 5.7 8.8l13.7-18.5-.6-.9zm44.6 264.4l-5.6 4.6v-22.3l6.6-5.2z"/></svg>