<?xml version="1.0" encoding="utf-8"?>
<!-- Generator: Adobe Illustrator 18.1.1, SVG Export Plug-In . SVG Version: 6.00 Build 0)  -->
<svg version="1.1" id="Layer_4" xmlns="http://www.w3.org/2000/svg" xmlns:xlink="http://www.w3.org/1999/xlink" x="0px" y="0px"
	 viewBox="0 0 418.8 401.7" enable-background="new 0 0 418.8 401.7" xml:space="preserve">
<path display="none" fill="none" stroke="#000000" stroke-miterlimit="10" d="M755.8,401.6"/>
<path fill="#000376" d="M395.5,239.4c0,0-10.8-13.9-50.2,4.5l-50.2,21.7c0,0,1.4-11.7-11.1-11.2c0,0-7,1.5-9.8,3.2
	c0,0-1.5-0.2-3-2.5c0,0-2.5-4.2-6.5-2c0,0-7.2,1.5-12,9.5c0,0-5,7.2-6.5,7.5c-1.5,0.3-18-6.3-19.2,0c0,0-1,4.8,0,11.8
	c0,0,0.3,17.5-0.4,21.1c0,0-1.3,12.9,6.8,9.7c0,0,9.6-4.2,13.1-5.3c0,0,4.6-3.1,8.8,4.2c0,0,8,8.5,14.2,3.3c0,0,4.5-3.1,8.8-0.1
	c0,0,8.6,3.9,10.9-1.1c0,0,2.4-4.7,6.5-5.3c0,0,4-0.5,4.4-8.5c0,0,42.5-1.9,54.4-2.8c0,0,23.1,0.1,44.6-27.7
	c0,0-39.5,21.2-98.5,22.4l-0.7-2.1c0,0,92.9-14.2,118.9-41.5c0,0-16-8.9-120.8,31.6l-1-1.9C297,277.8,389.3,243.3,395.5,239.4z"/>
<path fill="#FF3700" d="M191.5,389.3c0,0,2.1-5.4,7.4-4.9c0,0,78.7,13.5,93.4,13.5c0,0,26.3,5.6,63-13.5l-156.4-9.8
	c0,0-1.6-2.9,0.8-4.5c0,0,129.2-4.8,179.2,14.2c0,0-31-42.4-176-26.1c0,0-2.3-3.3-0.3-5.3c2-2,60.5-18.3,157.3,10
	c0,0-20.9-48.1-158.7-19.7c0,0-2.6-13.6-23.3-11.3c0,0-3.5-18.6-26-6.7c0,0-17.8,14.4-41.7-2.7c0,0,6.9,0.3,11.6-6
	c0,0-20.6,1.9-25.3-9c0,0,5.9,1.6,9,5c0,0-3.7-16.6-20.7-24c0,0-0.2-4.9,6-6.3c0,0,14.2-1.8,17-15.7c0,0,3.2,11.4,15.7,14
	c0,0,23.1,6,20.7,34.7c0,0-1.7,8.4,1,8.7c0,0,22-16.1,34.1,1.5c0,0,3.1-1.7,5.4-1.6c2,0.1,3,0.2,6.9,3.7c-4.7-4.5-9.2-10-5.3-16
	c0,0-7.8-7.8-7.7-21.7c0,0-16.9-8.7-20.6-17.4c0,0,37.6,18.4,54.7-11.4l4.2,2l-0.6,33.4l-6.8,5.4l-0.3-11l-4.5-13l-1.4,13l1.2,11.4
	l-11.2-2.2l-11-15.8l8.1,20.8l14.2,2.6l2,21.8l-8.5-5.3l-7.3-13.4l3.6,15.3l13.4,9.6l11.8-9.1l2.4-65.7c0,0,40.1-17.8,16.7-57.5
	c0,0-33.8-44-31.9-48.1c0,0-0.2-3.6,9.5-5c0,0,33.4-5.6,38.4-9.3c0,0,23-9.4,13-27.7h-4c0,0,1-9.7-11.7-16.3c0,0,8.3,16-6.3,21.3
	l-15.6,1.2c0,0-20.1-0.8-21.8-32.6h4.3c0,0,18-44.7,29.3-21c0,0,6.8-10.1,0-18c0,0,3.4-2.3,8.3,6c0,0,0.8-26.7-10.3-24.7
	c0,0-8.9,0.8-14.3,12.7c0,0-6.7,16.8-22.2,31c0,0-7.5,6-6.7,9.5c0,0-2.5,25.8-1.3,28.5c1.2,2.7,7.2,22.2,38,24.7
	c0,0-4.7,3.4-16.7,2.6c0,0-38.5,2.9-23.1,46.9c0,0,0.8-17.3,5.1-20.3c0.1-0.1,0.3-0.2,0.4-0.2c0,0,30.2,38.7,32.7,48.7
	c0,0,12.4,27.7-16.2,35c0,0-2.2-31.4-19.5-44.6c0,0,12.4,39.4,0.6,46.6c0,0-25.2,18.1-48.5-4.8c0,0-19-20.8-5-51.2
	c0,0,5.2-10.3,7.5-11.5c0,0-23.1,2.4-36.1-12.6c0,0-3.2,2.6,4,14.6c0,0,0.9,11.3-11.4,1.8c0,0-4,12.4-19.3,10.3c0,0,3.5,14.7,3.3,15
	s-14.8-8.2-22.7,1.7c0,0,9-3.3,13.9,7.8c0,0,3.4,5.1-1.2,9.6c0,0-10.1,5.4-26,43.1c0,0-2.8,9-14.9,15.4c0,0,23.6-7.8,40.9,5.5
	c0,0-10.8,2.2-10.1,3.7c0,0,19.1,0.4,20,20.4c0,0,8.3-3,8.7,2.2c0,0,5.5,22.5,40.8,18.7c3.3-0.4,7.2-5,12.5-7.5
	c0,0,9.2-6.3,12.5-1.1c0,0,1,0.6-1.8,7.7c0,0-0.4,2.7,3.8,1.6c0,0,8.8-3.5,12.6-1.7c2.1,1,2.5,7.7-0.5,8.7l-13.2,1.7
	c0,0,8.9-0.3,13.9,0.8c1.9,0.4,2.2,5.4,1,7.4c0,0-1.8,3.4-14.8,2.6c0,0,10,0.5,13.7,3c1.3,0.8,1,7.3-0.3,8.6
	c-2.6,2.5-9.5,2.9-15.2,2.3c0,0,6.4,1.4,9.8,3c3.7,1.8,1.7,11.2-1.4,12.6c-1.9,0.9-5.2,0.3-10.9-0.1c-16.8-1.1-23-8.6-23-8.6
	c-7.5-8-19.9-4.6-19.9-4.6c7.1-5,4.6-8.6,4.6-8.6c-7.2,6.3-10.8,3.1-10.8,3.1c-11.8-9.3-18.1-4-18.4-5.2c-0.4-1.7,1.7-1.6,1.7-1.6
	c-1.6-4.7-23.6-5.8-23.6-5.8c2.4-1.5,4.5-3.8,4.5-3.8c-15.1-2.6-19.9-7-19.9-7c2.9-0.7,5.7-3.6,5.7-3.6
	c-26.5-5.5-34.8-31.3-34.8-31.3c-1.1-7.7-5.1-12.8-5.1-12.8c4.7-3.6,6.9-9.9,6.9-9.9c-4.2,0.1-6.9-1.8-6.9-1.8
	c16.3-24.3,1.1-37.3,1.1-37.3l4.4-0.7l-0.9-3.1c28.1-1.8,32.6-25,32.6-25c-2.1,2-4.7,3.1-4.7,3.1c8.6-11.1,5.8-18.2,5.8-18.2
	c-2.3,3.5-3.9,3-3.9,3l6-14.1c1.5,0.2,16.4-3.1,16.4-3.1c-1.1-5.8-3.8-17.5-3.8-17.5l12.7-12.7c-1.3-1.5-6.3-1.3-6.3-1.3
	c-1.1-1.3-1.1-4.9-1.1-4.9c22,7.9,31.4-0.1,31.4-0.1c18.7-10.6,13.4-30.2,13.4-30.2c-4.4-11.1-0.7-17.2-0.7-17.2
	c5.6-8.4-4.1-10.4-4.1-10.4c-26.4-6.8-35.2-34.2-35.2-34.2c36.7-7.7,54.3,27.4,54.3,27.4c3.8,4.9,3.2-1.3,3.2-1.3
	c-0.7-3.3,0.5-16.5,0.5-16.5c-2.7-4.3-8.1-4.4-8.1-4.4c-2.1-5.9,6.4-6.7,6.4-6.7c4.2-1.1,5.3-4.2,5.3-4.2c4.6-7.7,13.7-4.9,13.7-4.9
	c30.4,7.2,37.4-5,37.4-5c12.8-20.7,19.8-22.2,19.8-22.2c6.5-2,7.2-7.2,7.2-7.2c2.3-9.7,6.4-7,6.4-7c8.6,4.7-1.4,10.2-1.4,10.2
	c-11,4.9-7.1,8.6-7.1,8.6c2.2,3.1,13.7-6.1,13.7-6.1s2.2,2.4,4.5,0c0,0,7.1-25.6-13.5-24.6c0,0-5.4,0-9.1,12c0,0-2.5,5.4-3.9,6.9
	c0,0-3,3.3-8.8,4.5c0,0-9.1,2.4-12.9,9.9c0,0-4.9,7.6-9,8c0,0-3.2,1.4-9-2.8c0,0-9.7-6.3-17.4-2.5c0,0-3,0.9-9.1,7.1
	c0,0-3.8,4.1-13.2,4.2c0,0-15.3,1.1-16.1,10.8c0,0-15.5-10.6-45.4-2c0,0,2.8,35.1,45,50.8c0,0-3.2,4.5-3.1,20.9l-3-0.9
	c0,0-1.4,45.8-50.7,5.5c-0.3-0.2,5.3,7.8,4.5,17.6c0,0-1.8,7.2,3.5,12.8c0,0-4.2,4.4-5.5,5.1c0,0-1.2,0.9-0.9,2.8
	c0,0,0.8,10,0.9,11.2c0,0,0.2,1.6-1.1,1.5c0,0-2.2,0.2-5.9-0.6c0,0-15.6,42.2-27.4,43.4c0,0,0.2,0.6,0.6,1c0.2,0.1-0.3,0.4-1.2,0.3
	c0,0,5.4,4.1,9.1,3.9c0,0,0.2,0.9-1.7,0.9c0,0,2.8,3.3,0.6,4c0,0-19.2,4-27.6-5.2c0,0-0.6,0.5-0.1,2.8c0,0,0.8,6.1,7.3,10.9v0.1
	c0,0-6.3,0.2-9.6,3.4c0,0,17.4,1.8,16.1,18.8c0,0-1.4,20.5-24.8,14.7c0,0,6.5,13.3,17.9,13.9c0,0-13.1-2.5-17.2,3.3
	c0,0,17.4-4.8,20,19.5c0,0,1,18.8,20,25.4c0,0-6.3,0.9-10.3-0.7c0,0,2.1,7.7,21.9,14.5c0,0-2.6,2.5-8,3.3c0,0-0.3,4,12.4,2.7
	c0,0,7.6-1.3,15.1,3.8c0,0,0,4.1-4.3,7.8c0,0,16-8.8,38.5,1.6c0,0,1.7,0.9,5.2-0.1c0,0-1.5,6.6,1.8,11.3c0,0,3-14.1,19.2-3.7
	c0,0,15.8,9.7,18,11.3C150.2,395.4,182,413,191.5,389.3"/>
<path fill="#FF3700" d="M213.7,47.1c0,0-42.2,25.1-51.3,83.9c0,0,3.8-9.2,8.9-12c0,0-2.8,25.5,10,41.7c0,0-7.9-22.6-1.9-35.7
	c0,0,14.7,13.5,27.5,8.9C206.9,133.8,155.1,117.3,213.7,47.1z"/>
<g>
	<path fill="#FF3700" d="M282.2,283.2c0,0-4.5-7.1,2.5-7.7c0,0,6.9-0.4,4.3,7.2l-3.7-4.1L282.2,283.2z"/>
	<path fill="#FF3700" d="M281.5,295.4c0,0-4.7-7.2,2.6-8.2c0,0,6.9,0,4.2,7.6l-3.7-4.1L281.5,295.4z"/>
	<path fill="#FF3700" d="M273.2,267.3c0,0-3.6-6.2-4.9-4.2c-1.3,1.9-2.5,3.4-8.6,2.6c0,0-4.9-0.1-4.2,3.5c0,0,2.3,3.4-3.7,5.4
		c0,0-1.9,0.1-2.5,4.3c0,0-0.8,4.2-6.5,1.7c0,0-8.8-4.8-8.6-1.1c0,0,0.5,17.9,1.1,19.2s2.1,4,5.8,1.9c0,0,8.8-4,15.9-0.6
		c0,0,1.3,5.6,6.4,5.6c0,0,5.6,0,3.1-4.2c0,0-2.1-4.6-5-5.9c0,0-1.4-0.6-0.5-2.6c0,0,0.6-1.5,2-2.7c0,0-4.2-1.8-9.1,3.3
		c0,0-1.9,3.3-2.9,1c0,0-0.9-4,2.9-8.6c0,0-3.4-1.9-2.5-6.5c0,0,1-0.3,1.7,1.2c0,0,4.3,6.4,9.3,2.1c0,0,1-2.5-1.7-4.7
		c0,0-3.5-2.4-2.5-3.9c0,0,1.6-0.9,1.9-2.4c0.2-1,1.8-1.3,2.4,0.3c0,0,3.9,7.6,6.1,7.4c2.2-0.1,4.2-0.6,5.5-2.8c0,0,0.7-0.9-0.6-0.9
		c0,0-3.9-0.7-3.9-4.1c0,0-0.5-2.2,2.2-3.2C271.6,268.8,273.6,268.2,273.2,267.3z"/>
	<path fill="#FF3700" d="M280.9,269.4c0,0-3.1-4.5,1.7-6c0,0,5.3-1,4.5,4.9l-3.9-2.4L280.9,269.4z"/>
	<path fill="#FF3700" d="M280.1,302.9c0,0-1.5-5.2,3.5-5.2c0,0,5.4,0.7,2.7,6l-3-3.5L280.1,302.9z"/>
</g>
<path fill="#FF3700" d="M172.9,57.4L147.6,69c0,0,1.3,14.5,11.7,18l15.6-26.3L172.9,57.4z"/>
<path fill="#FFFFFF" d="M171.5,60.2l-18.8,10.6c0,0,0.5,6.4,5.7,8.8l13.7-18.5L171.5,60.2z"/>
<polygon fill="#FFFFFF" points="216.1,324.6 210.5,329.2 210.5,306.9 217.1,301.7 "/>
</svg>
