<?xml version="1.0" encoding="utf-8"?>
<!-- Generator: Adobe Illustrator 18.1.1, SVG Export Plug-In . SVG Version: 6.00 Build 0)  -->
<svg version="1.1" id="Layer_1" xmlns="http://www.w3.org/2000/svg" xmlns:xlink="http://www.w3.org/1999/xlink" x="0px" y="0px"
	 viewBox="0 0 8 6.7" enable-background="new 0 0 8 6.7" xml:space="preserve">
<path d="M7.1,1.8H0.9C0.4,1.8,0,1.4,0,0.9v0C0,0.4,0.4,0,0.9,0h6.1C7.6,0,8,0.4,8,0.9v0C8,1.4,7.6,1.8,7.1,1.8z"/>
<path d="M7.1,4.3H0.9C0.4,4.3,0,3.9,0,3.4v0c0-0.5,0.4-0.9,0.9-0.9h6.1C7.6,2.5,8,2.9,8,3.4v0C8,3.9,7.6,4.3,7.1,4.3z"/>
<path d="M7.1,6.7H0.9C0.4,6.7,0,6.3,0,5.8v0c0-0.5,0.4-0.9,0.9-0.9h6.1C7.6,4.9,8,5.3,8,5.8v0C8,6.3,7.6,6.7,7.1,6.7z"/>
</svg>
