<?xml version="1.0" encoding="utf-8"?>
<!-- Generator: Adobe Illustrator 18.1.1, SVG Export Plug-In . SVG Version: 6.00 Build 0)  -->
<svg version="1.1" id="Layer_1" xmlns="http://www.w3.org/2000/svg" xmlns:xlink="http://www.w3.org/1999/xlink" x="0px" y="0px"
	 viewBox="0 206.4 612 585.6" enable-background="new 0 206.4 612 585.6" xml:space="preserve">
<g>
	<path d="M577,555.3c0,0-15.7-20.3-73.2,6.6l-73.2,31.6c0,0,2-17.1-16.2-16.3c0,0-10.2,2.2-14.3,4.7c0,0-2.2-0.3-4.4-3.6
		c0,0-3.6-6.1-9.5-2.9c0,0-10.5,2.2-17.5,13.9c0,0-7.3,10.5-9.5,10.9c-2.2,0.4-26.2-9.2-28,0c0,0-1.5,7,0,17.2
		c0,0,0.4,25.5-0.6,30.8c0,0-1.9,18.8,9.9,14.1c0,0,14-6.1,19.1-7.7c0,0,6.7-4.5,12.8,6.1c0,0,11.7,12.4,20.7,4.8
		c0,0,6.6-4.5,12.8-0.1c0,0,12.5,5.7,15.9-1.6c0,0,3.5-6.9,9.5-7.7c0,0,5.8-0.7,6.4-12.4c0,0,62-2.8,79.3-4.1c0,0,33.7,0.1,65-40.4
		c0,0-57.6,30.9-143.6,32.7l-1-3.1c0,0,135.5-20.7,173.4-60.5c0,0-23.3-13-176.2,46.1l-1.5-2.8C433.4,611.3,568,561,577,555.3
		L577,555.3z"/>
	<path fill="#ED1C24" d="M279.6,773.9c0,0,3.1-7.9,10.8-7.1c0,0,114.8,19.7,136.2,19.7c0,0,38.4,8.2,91.9-19.7l-228.1-14.3
		c0,0-2.3-4.2,1.2-6.6c0,0,188.4-7,261.3,20.7c0,0-45.2-61.8-256.7-38.1c0,0-3.4-4.8-0.4-7.7c2.9-2.9,88.2-26.7,229.4,14.6
		c0,0-30.5-70.1-231.4-28.7c0,0-3.8-19.8-34-16.5c0,0-5.1-27.1-37.9-9.8c0,0-26,21-60.8-3.9c0,0,10.1,0.4,16.9-8.7
		c0,0-30,2.8-36.9-13.1c0,0,8.6,2.3,13.1,7.3c0,0-5.4-24.2-30.2-35c0,0-0.3-7.1,8.7-9.2c0,0,20.7-2.6,24.8-22.9
		c0,0,4.7,16.6,22.9,20.4c0,0,33.7,8.7,30.2,50.6c0,0-2.5,12.2,1.5,12.7c0,0,32.1-23.5,49.7,2.2c0,0,4.5-2.5,7.9-2.3
		c2.9,0.1,4.4,0.3,10.1,5.4c-6.9-6.6-13.4-14.6-7.7-23.3c0,0-11.4-11.4-11.2-31.6c0,0-24.6-12.7-30-25.4c0,0,54.8,26.8,79.8-16.6
		l6.1,2.9l-0.9,48.7l-9.9,7.9l-0.4-16l-6.6-19l-2,19l1.7,16.6l-16.3-3.2l-16-23L278,651l20.7,3.8l2.9,31.8l-12.4-7.7l-10.6-19.5
		l5.2,22.3l19.5,14l17.2-13.3l3.5-95.8c0,0,58.5-26,24.4-83.9c0,0-49.3-64.2-46.5-70.1c0,0-0.3-5.2,13.9-7.3c0,0,48.7-8.2,56-13.6
		c0,0,33.5-13.7,19-40.4h-5.8c0,0,1.5-14.1-17.1-23.8c0,0,12.1,23.3-9.2,31.1l-22.7,1.7c0,0-29.3-1.2-31.8-47.5h6.3
		c0,0,26.2-65.2,42.7-30.6c0,0,9.9-14.7,0-26.2c0,0,5-3.4,12.1,8.7c0,0,1.2-38.9-15-36c0,0-13,1.2-20.9,18.5c0,0-9.8,24.5-32.4,45.2
		c0,0-10.9,8.7-9.8,13.9c0,0-3.6,37.6-1.9,41.6c1.7,3.9,10.5,32.4,55.4,36c0,0-6.9,5-24.4,3.8c0,0-56.1,4.2-33.7,68.4
		c0,0,1.2-25.2,7.4-29.6c0.1-0.1,0.4-0.3,0.6-0.3c0,0,44,56.4,47.7,71c0,0,18.1,40.4-23.6,51c0,0-3.2-45.8-28.4-65
		c0,0,18.1,57.5,0.9,68c0,0-36.7,26.4-70.7-7c0,0-27.7-30.3-7.3-74.7c0,0,7.6-15,10.9-16.8c0,0-33.7,3.5-52.6-18.4
		c0,0-4.7,3.8,5.8,21.3c0,0,1.3,16.5-16.6,2.6c0,0-5.8,18.1-28.1,15c0,0,5.1,21.4,4.8,21.9s-21.6-12-33.1,2.5
		c0,0,13.1-4.8,20.3,11.4c0,0,5,7.4-1.7,14c0,0-14.7,7.9-37.9,62.9c0,0-4.1,13.1-21.7,22.5c0,0,34.4-11.4,59.6,8
		c0,0-15.7,3.2-14.7,5.4c0,0,27.9,0.6,29.2,29.7c0,0,12.1-4.4,12.7,3.2c0,0,8,32.8,59.5,27.3c4.8-0.6,10.5-7.3,18.2-10.9
		c0,0,13.4-9.2,18.2-1.6c0,0,1.5,0.9-2.6,11.2c0,0-0.6,3.9,5.5,2.3c0,0,12.8-5.1,18.4-2.5c3.1,1.5,3.6,11.2-0.7,12.7l-19.2,2.5
		c0,0,13-0.4,20.3,1.2c2.8,0.6,3.2,7.9,1.5,10.8c0,0-2.6,5-21.6,3.8c0,0,14.6,0.7,20,4.4c1.9,1.2,1.5,10.6-0.4,12.5
		c-3.8,3.6-13.9,4.2-22.2,3.4c0,0,9.3,2,14.3,4.4c5.4,2.6,2.5,16.3-2,18.4c-2.8,1.3-7.6,0.4-15.9-0.1c-24.5-1.6-33.5-12.5-33.5-12.5
		c-10.9-11.7-29-6.7-29-6.7c10.4-7.3,6.7-12.5,6.7-12.5c-10.5,9.2-15.7,4.5-15.7,4.5c-17.2-13.6-26.4-5.8-26.8-7.6
		c-0.6-2.5,2.5-2.3,2.5-2.3c-2.3-6.9-34.4-8.5-34.4-8.5c3.5-2.2,6.6-5.5,6.6-5.5c-22-3.8-29-10.2-29-10.2c4.2-1,8.3-5.2,8.3-5.2
		c-38.6-8-50.7-45.6-50.7-45.6c-1.6-11.2-7.4-18.7-7.4-18.7c6.9-5.2,10.1-14.4,10.1-14.4c-6.1,0.1-10.1-2.6-10.1-2.6
		c23.8-35.4,1.6-54.4,1.6-54.4l6.4-1l-1.3-4.5c41-2.6,47.5-36.5,47.5-36.5c-3.1,2.9-6.9,4.5-6.9,4.5c12.5-16.2,8.5-26.5,8.5-26.5
		c-3.4,5.1-5.7,4.4-5.7,4.4l8.7-20.6c2.2,0.3,23.9-4.5,23.9-4.5c-1.6-8.5-5.5-25.5-5.5-25.5l18.5-18.5c-1.9-2.2-9.2-1.9-9.2-1.9
		c-1.6-1.9-1.6-7.1-1.6-7.1c32.1,11.5,45.8-0.1,45.8-0.1c27.3-15.5,19.5-44,19.5-44c-6.4-16.2-1-25.1-1-25.1c8.2-12.2-6-15.2-6-15.2
		c-38.5-9.9-51.3-49.9-51.3-49.9c53.5-11.2,79.2,40,79.2,40c5.5,7.1,4.7-1.9,4.7-1.9c-1-4.8,0.7-24.1,0.7-24.1
		c-3.9-6.3-11.8-6.4-11.8-6.4c-3.1-8.6,9.3-9.8,9.3-9.8c6.1-1.6,7.7-6.1,7.7-6.1c6.7-11.2,20-7.1,20-7.1
		c44.3,10.5,54.5-7.3,54.5-7.3c18.7-30.2,28.9-32.4,28.9-32.4C329,241.6,330,234,330,234c3.4-14.1,9.3-10.2,9.3-10.2
		c12.5,6.9-2,14.9-2,14.9c-16,7.1-10.4,12.5-10.4,12.5c3.2,4.5,20-8.9,20-8.9s3.2,3.5,6.6,0c0,0,10.4-37.3-19.7-35.9
		c0,0-7.9,0-13.3,17.5c0,0-3.6,7.9-5.7,10.1c0,0-4.4,4.8-12.8,6.6c0,0-13.3,3.5-18.8,14.4c0,0-7.1,11.1-13.1,11.7
		c0,0-4.7,2-13.1-4.1c0,0-14.1-9.2-25.4-3.6c0,0-4.4,1.3-13.3,10.4c0,0-5.5,6-19.2,6.1c0,0-22.3,1.6-23.5,15.7
		c0,0-22.6-15.5-66.2-2.9c0,0,4.1,51.2,65.6,74.1c0,0-4.7,6.6-4.5,30.5l-4.4-1.3c0,0-2,66.8-73.9,8c-0.4-0.3,7.7,11.4,6.6,25.7
		c0,0-2.6,10.5,5.1,18.7c0,0-6.1,6.4-8,7.4c0,0-1.7,1.3-1.3,4.1c0,0,1.2,14.6,1.3,16.3c0,0,0.3,2.3-1.6,2.2c0,0-3.2,0.3-8.6-0.9
		c0,0-22.7,61.5-40,63.3c0,0,0.3,0.9,0.9,1.5c0.3,0.1-0.4,0.6-1.7,0.4c0,0,7.9,6,13.3,5.7c0,0,0.3,1.3-2.5,1.3c0,0,4.1,4.8,0.9,5.8
		c0,0-28,5.8-40.2-7.6c0,0-0.9,0.7-0.1,4.1c0,0,1.2,8.9,10.6,15.9v0.1c0,0-9.2,0.3-14,5c0,0,25.4,2.6,23.5,27.4
		c0,0-2,29.9-36.2,21.4c0,0,9.5,19.4,26.1,20.3c0,0-19.1-3.6-25.1,4.8c0,0,25.4-7,29.2,28.4c0,0,1.5,27.4,29.2,37c0,0-9.2,1.3-15-1
		c0,0,3.1,11.2,31.9,21.1c0,0-3.8,3.6-11.7,4.8c0,0-0.4,5.8,18.1,3.9c0,0,11.1-1.9,22,5.5c0,0,0,6-6.3,11.4c0,0,23.3-12.8,56.1,2.3
		c0,0,2.5,1.3,7.6-0.1c0,0-2.2,9.6,2.6,16.5c0,0,4.4-20.6,28-5.4c0,0,23,14.1,26.2,16.5C219.3,782.8,265.7,808.5,279.6,773.9"/>
	<path fill="#ED1C24" d="M311.9,274.9c0,0-61.5,36.6-74.8,122.4c0,0,5.5-13.4,13-17.5c0,0-4.1,37.2,14.6,60.8c0,0-11.5-33-2.8-52.1
		c0,0,21.4,19.7,40.1,13C302,401.3,226.5,377.2,311.9,274.9L311.9,274.9z M411.8,619.2c0,0-6.6-10.4,3.6-11.2c0,0,10.1-0.6,6.3,10.5
		l-5.4-6L411.8,619.2L411.8,619.2z M410.8,637c0,0-6.9-10.5,3.8-12c0,0,10.1,0,6.1,11.1l-5.4-6L410.8,637z M398.7,596
		c0,0-5.2-9-7.1-6.1c-1.9,2.8-3.6,5-12.5,3.8c0,0-7.1-0.1-6.1,5.1c0,0,3.4,5-5.4,7.9c0,0-2.8,0.1-3.6,6.3c0,0-1.2,6.1-9.5,2.5
		c0,0-12.8-7-12.5-1.6c0,0,0.7,26.1,1.6,28c0.9,1.9,3.1,5.8,8.5,2.8c0,0,12.8-5.8,23.2-0.9c0,0,1.9,8.2,9.3,8.2c0,0,8.2,0,4.5-6.1
		c0,0-3.1-6.7-7.3-8.6c0,0-2-0.9-0.7-3.8c0,0,0.9-2.2,2.9-3.9c0,0-6.1-2.6-13.3,4.8c0,0-2.8,4.8-4.2,1.5c0,0-1.3-5.8,4.2-12.5
		c0,0-5-2.8-3.6-9.5c0,0,1.5-0.4,2.5,1.7c0,0,6.3,9.3,13.6,3.1c0,0,1.5-3.6-2.5-6.9c0,0-5.1-3.5-3.6-5.7c0,0,2.3-1.3,2.8-3.5
		c0.3-1.5,2.6-1.9,3.5,0.4c0,0,5.7,11.1,8.9,10.8c3.2-0.1,6.1-0.9,8-4.1c0,0,1-1.3-0.9-1.3c0,0-5.7-1-5.7-6c0,0-0.7-3.2,3.2-4.7
		C396.4,598.2,399.3,597.3,398.7,596L398.7,596z M409.9,599c0,0-4.5-6.6,2.5-8.7c0,0,7.7-1.5,6.6,7.1l-5.7-3.5L409.9,599L409.9,599z
		 M408.8,647.9c0,0-2.2-7.6,5.1-7.6c0,0,7.9,1,3.9,8.7l-4.4-5.1L408.8,647.9z M252.4,289.9l-36.9,16.9c0,0,1.9,21.1,17.1,26.2
		l22.7-38.4L252.4,289.9z"/>
	<path fill="#FFFFFF" d="M250.4,294L223,309.4c0,0,0.7,9.3,8.3,12.8l20-27L250.4,294L250.4,294z M315.4,679.5l-8.2,6.7v-32.5
		l9.6-7.6L315.4,679.5z"/>
</g>
</svg>
