<svg xmlns="http://www.w3.org/2000/svg" viewBox="0 206.4 612 585.6" enable-background="new 0 206.4 612 585.6"><path d="M252.4 289.9l-36.9 16.9s1.9 21.1 17.1 26.2l22.7-38.4-2.9-4.7z"/><g stroke="#000" stroke-miterlimit="10"><path fill="#FDB813" d="M577 555.3s-15.7-20.3-73.2 6.6l-73.2 31.6s2-17.1-16.2-16.3c0 0-10.2 2.2-14.3 4.7 0 0-2.2-.3-4.4-3.6 0 0-3.6-6.1-9.5-2.9 0 0-10.5 2.2-17.5 13.9 0 0-7.3 10.5-9.5 10.9-2.2.4-26.2-9.2-28 0 0 0-1.5 7 0 17.2 0 0 .4 25.5-.6 30.8 0 0-1.9 18.8 9.9 14.1 0 0 14-6.1 19.1-7.7 0 0 6.7-4.5 12.8 6.1 0 0 11.7 12.4 20.7 4.8 0 0 6.6-4.5 12.8-.1 0 0 12.5 5.7 15.9-1.6 0 0 3.5-6.9 9.5-7.7 0 0 5.8-.7 6.4-12.4 0 0 62-2.8 79.3-4.1 0 0 33.7.1 65-40.4 0 0-57.6 30.9-143.6 32.7l-1-3.1s135.5-20.7 173.4-60.5c0 0-23.3-13-176.2 46.1l-1.5-2.8c.3-.3 134.9-50.6 143.9-56.3zm-297.4 218.6s3.1-7.9 10.8-7.1c0 0 114.8 19.7 136.2 19.7 0 0 38.4 8.2 91.9-19.7l-228.1-14.3s-2.3-4.2 1.2-6.6c0 0 188.4-7 261.3 20.7 0 0-45.2-61.8-256.7-38.1 0 0-3.4-4.8-.4-7.7 2.9-2.9 88.2-26.7 229.4 14.6 0 0-30.5-70.1-231.4-28.7 0 0-3.8-19.8-34-16.5 0 0-5.1-27.1-37.9-9.8 0 0-26 21-60.8-3.9 0 0 10.1.4 16.9-8.7 0 0-30 2.8-36.9-13.1 0 0 8.6 2.3 13.1 7.3 0 0-5.4-24.2-30.2-35 0 0-.3-7.1 8.7-9.2 0 0 20.7-2.6 24.8-22.9 0 0 4.7 16.6 22.9 20.4 0 0 33.7 8.7 30.2 50.6 0 0-2.5 12.2 1.5 12.7 0 0 32.1-23.5 49.7 2.2 0 0 4.5-2.5 7.9-2.3 2.9.1 4.4.3 10.1 5.4-6.9-6.6-13.4-14.6-7.7-23.3 0 0-11.4-11.4-11.2-31.6 0 0-24.6-12.7-30-25.4 0 0 54.8 26.8 79.8-16.6l6.1 2.9-.9 48.7-9.9 7.9-.4-16-6.6-19-2 19 1.7 16.6-16.3-3.2-16-23 11.6 30.1 20.7 3.8 2.9 31.8-12.4-7.7-10.6-19.5 5.2 22.3 19.5 14 17.2-13.3 3.5-95.8s58.5-26 24.4-83.9c0 0-49.3-64.2-46.5-70.1 0 0-.3-5.2 13.9-7.3 0 0 48.7-8.2 56-13.6 0 0 33.5-13.7 19-40.4h-5.8s1.5-14.1-17.1-23.8c0 0 12.1 23.3-9.2 31.1l-22.7 1.7s-29.3-1.2-31.8-47.5h6.3s26.2-65.2 42.7-30.6c0 0 9.9-14.7 0-26.2 0 0 5-3.4 12.1 8.7 0 0 1.2-38.9-15-36 0 0-13 1.2-20.9 18.5 0 0-9.8 24.5-32.4 45.2 0 0-10.9 8.7-9.8 13.9 0 0-3.6 37.6-1.9 41.6 1.7 3.9 10.5 32.4 55.4 36 0 0-6.9 5-24.4 3.8 0 0-56.1 4.2-33.7 68.4 0 0 1.2-25.2 7.4-29.6.1-.1.4-.3.6-.3 0 0 44 56.4 47.7 71 0 0 18.1 40.4-23.6 51 0 0-3.2-45.8-28.4-65 0 0 18.1 57.5.9 68 0 0-36.7 26.4-70.7-7 0 0-27.7-30.3-7.3-74.7 0 0 7.6-15 10.9-16.8 0 0-33.7 3.5-52.6-18.4 0 0-4.7 3.8 5.8 21.3 0 0 1.3 16.5-16.6 2.6 0 0-5.8 18.1-28.1 15 0 0 5.1 21.4 4.8 21.9s-21.6-12-33.1 2.5c0 0 13.1-4.8 20.3 11.4 0 0 5 7.4-1.7 14 0 0-14.7 7.9-37.9 62.9 0 0-4.1 13.1-21.7 22.5 0 0 34.4-11.4 59.6 8 0 0-15.7 3.2-14.7 5.4 0 0 27.9.6 29.2 29.7 0 0 12.1-4.4 12.7 3.2 0 0 8 32.8 59.5 27.3 4.8-.6 10.5-7.3 18.2-10.9 0 0 13.4-9.2 18.2-1.6 0 0 1.5.9-2.6 11.2 0 0-.6 3.9 5.5 2.3 0 0 12.8-5.1 18.4-2.5 3.1 1.5 3.6 11.2-.7 12.7l-19.2 2.5s13-.4 20.3 1.2c2.8.6 3.2 7.9 1.5 10.8 0 0-2.6 5-21.6 3.8 0 0 14.6.7 20 4.4 1.9 1.2 1.5 10.6-.4 12.5-3.8 3.6-13.9 4.2-22.2 3.4 0 0 9.3 2 14.3 4.4 5.4 2.6 2.5 16.3-2 18.4-2.8 1.3-7.6.4-15.9-.1-24.5-1.6-33.5-12.5-33.5-12.5-10.9-11.7-29-6.7-29-6.7 10.4-7.3 6.7-12.5 6.7-12.5-10.5 9.2-15.7 4.5-15.7 4.5-17.2-13.6-26.4-5.8-26.8-7.6-.6-2.5 2.5-2.3 2.5-2.3-2.3-6.9-34.4-8.5-34.4-8.5 3.5-2.2 6.6-5.5 6.6-5.5-22-3.8-29-10.2-29-10.2 4.2-1 8.3-5.2 8.3-5.2-38.6-8-50.7-45.6-50.7-45.6-1.6-11.2-7.4-18.7-7.4-18.7 6.9-5.2 10.1-14.4 10.1-14.4-6.1.1-10.1-2.6-10.1-2.6 23.8-35.4 1.6-54.4 1.6-54.4l6.4-1-1.3-4.5c41-2.6 47.5-36.5 47.5-36.5-3.1 2.9-6.9 4.5-6.9 4.5 12.5-16.2 8.5-26.5 8.5-26.5-3.4 5.1-5.7 4.4-5.7 4.4l8.7-20.6c2.2.3 23.9-4.5 23.9-4.5-1.6-8.5-5.5-25.5-5.5-25.5l18.5-18.5c-1.9-2.2-9.2-1.9-9.2-1.9-1.6-1.9-1.6-7.1-1.6-7.1 32.1 11.5 45.8-.1 45.8-.1 27.3-15.5 19.5-44 19.5-44-6.4-16.2-1-25.1-1-25.1 8.2-12.2-6-15.2-6-15.2-38.5-9.9-51.3-49.9-51.3-49.9 53.5-11.2 79.2 40 79.2 40 5.5 7.1 4.7-1.9 4.7-1.9-1-4.8.7-24.1.7-24.1-3.9-6.3-11.8-6.4-11.8-6.4-3.1-8.6 9.3-9.8 9.3-9.8 6.1-1.6 7.7-6.1 7.7-6.1 6.7-11.2 20-7.1 20-7.1 44.3 10.5 54.5-7.3 54.5-7.3 18.7-30.2 28.9-32.4 28.9-32.4 8.9-3.6 9.9-11.2 9.9-11.2 3.4-14.1 9.3-10.2 9.3-10.2 12.5 6.9-2 14.9-2 14.9-16 7.1-10.4 12.5-10.4 12.5 3.2 4.5 20-8.9 20-8.9s3.2 3.5 6.6 0c0 0 10.4-37.3-19.7-35.9 0 0-7.9 0-13.3 17.5 0 0-3.6 7.9-5.7 10.1 0 0-4.4 4.8-12.8 6.6 0 0-13.3 3.5-18.8 14.4 0 0-7.1 11.1-13.1 11.7 0 0-4.7 2-13.1-4.1 0 0-14.1-9.2-25.4-3.6 0 0-4.4 1.3-13.3 10.4 0 0-5.5 6-19.2 6.1 0 0-22.3 1.6-23.5 15.7 0 0-22.6-15.5-66.2-2.9 0 0 4.1 51.2 65.6 74.1 0 0-4.7 6.6-4.5 30.5l-4.4-1.3s-2 66.8-73.9 8c-.4-.3 7.7 11.4 6.6 25.7 0 0-2.6 10.5 5.1 18.7 0 0-6.1 6.4-8 7.4 0 0-1.7 1.3-1.3 4.1 0 0 1.2 14.6 1.3 16.3 0 0 .3 2.3-1.6 2.2 0 0-3.2.3-8.6-.9 0 0-22.7 61.5-40 63.3 0 0 .3.9.9 1.5.3.1-.4.6-1.7.4 0 0 7.9 6 13.3 5.7 0 0 .3 1.3-2.5 1.3 0 0 4.1 4.8.9 5.8 0 0-28 5.8-40.2-7.6 0 0-.9.7-.1 4.1 0 0 1.2 8.9 10.6 15.9v.1s-9.2.3-14 5c0 0 25.4 2.6 23.5 27.4 0 0-2 29.9-36.2 21.4 0 0 9.5 19.4 26.1 20.3 0 0-19.1-3.6-25.1 4.8 0 0 25.4-7 29.2 28.4 0 0 1.5 27.4 29.2 37 0 0-9.2 1.3-15-1 0 0 3.1 11.2 31.9 21.1 0 0-3.8 3.6-11.7 4.8 0 0-.4 5.8 18.1 3.9 0 0 11.1-1.9 22 5.5 0 0 0 6-6.3 11.4 0 0 23.3-12.8 56.1 2.3 0 0 2.5 1.3 7.6-.1 0 0-2.2 9.6 2.6 16.5 0 0 4.4-20.6 28-5.4 0 0 23 14.1 26.2 16.5.2-.6 46.6 25.1 60.5-9.5"/><path fill="#fff" d="M411.8 619.2s-6.6-10.4 3.6-11.2c0 0 10.1-.6 6.3 10.5l-5.4-6-4.5 6.7zm-1 17.8s-6.9-10.5 3.8-12c0 0 10.1 0 6.1 11.1l-5.4-6-4.5 6.9zm-12.1-41s-5.2-9-7.1-6.1c-1.9 2.8-3.6 5-12.5 3.8 0 0-7.1-.1-6.1 5.1 0 0 3.4 5-5.4 7.9 0 0-2.8.1-3.6 6.3 0 0-1.2 6.1-9.5 2.5 0 0-12.8-7-12.5-1.6 0 0 .7 26.1 1.6 28 .9 1.9 3.1 5.8 8.5 2.8 0 0 12.8-5.8 23.2-.9 0 0 1.9 8.2 9.3 8.2 0 0 8.2 0 4.5-6.1 0 0-3.1-6.7-7.3-8.6 0 0-2-.9-.7-3.8 0 0 .9-2.2 2.9-3.9 0 0-6.1-2.6-13.3 4.8 0 0-2.8 4.8-4.2 1.5 0 0-1.3-5.8 4.2-12.5 0 0-5-2.8-3.6-9.5 0 0 1.5-.4 2.5 1.7 0 0 6.3 9.3 13.6 3.1 0 0 1.5-3.6-2.5-6.9 0 0-5.1-3.5-3.6-5.7 0 0 2.3-1.3 2.8-3.5.3-1.5 2.6-1.9 3.5.4 0 0 5.7 11.1 8.9 10.8 3.2-.1 6.1-.9 8-4.1 0 0 1-1.3-.9-1.3 0 0-5.7-1-5.7-6 0 0-.7-3.2 3.2-4.7-.5.5 2.4-.4 1.8-1.7zm11.2 3s-4.5-6.6 2.5-8.7c0 0 7.7-1.5 6.6 7.1l-5.7-3.5-3.4 5.1zm-1.1 48.9s-2.2-7.6 5.1-7.6c0 0 7.9 1 3.9 8.7l-4.4-5.1-4.6 4zm-158.4-353.9l-27.4 15.4s.7 9.3 8.3 12.8l20-27-.9-1.2zm65 385.5l-8.2 6.7v-32.5l9.6-7.6-1.4 33.4z"/></g><path d="M311.9 274.9s-61.5 36.6-74.8 122.4c0 0 5.5-13.4 13-17.5 0 0-4.1 37.2 14.6 60.8 0 0-11.5-33-2.8-52.1 0 0 21.4 19.7 40.1 13 0-.2-75.5-24.3 9.9-126.6z"/></svg>